<?xml version="1.0" standalone="no"?>
<!DOCTYPE svg PUBLIC "-//W3C//DTD SVG 1.1//EN" "http://www.w3.org/Graphics/SVG/1.1/DTD/svg11.dtd" >
<svg xmlns="http://www.w3.org/2000/svg">
<metadata>
Created by FontForge 20120731 at Thu Jun 25 12:11:00 2015
 By Ads
</metadata>
<defs>
<font id="iconfont" horiz-adv-x="1024" >
  <font-face 
    font-family="iconfont"
    font-weight="500"
    font-stretch="normal"
    units-per-em="1024"
    panose-1="2 0 6 3 0 0 0 0 0 0"
    ascent="812"
    descent="-212"
    x-height="792"
    bbox="1 -224 1082 800"
    underline-thickness="50"
    underline-position="-100"
    unicode-range="U+0078-E6BE"
  />
<missing-glyph horiz-adv-x="374" 
d="M34 0v682h272v-682h-272zM68 34h204v614h-204v-614z" />
    <glyph glyph-name=".notdef" horiz-adv-x="374" 
d="M34 0v682h272v-682h-272zM68 34h204v614h-204v-614z" />
    <glyph glyph-name=".null" horiz-adv-x="0" 
 />
    <glyph glyph-name="nonmarkingreturn" horiz-adv-x="341" 
 />
    <glyph glyph-name="x" unicode="x" horiz-adv-x="1001" 
d="M281 543q-27 -1 -53 -1h-83q-18 0 -36.5 -6t-32.5 -18.5t-23 -32t-9 -45.5v-76h912v41q0 16 -0.5 30t-0.5 18q0 13 -5 29t-17 29.5t-31.5 22.5t-49.5 9h-133v-97h-438v97zM955 310v-52q0 -23 0.5 -52t0.5 -58t-10.5 -47.5t-26 -30t-33 -16t-31.5 -4.5q-14 -1 -29.5 -0.5
t-29.5 0.5h-32l-45 128h-439l-44 -128h-29h-34q-20 0 -45 1q-25 0 -41 9.5t-25.5 23t-13.5 29.5t-4 30v167h911zM163 247q-12 0 -21 -8.5t-9 -21.5t9 -21.5t21 -8.5q13 0 22 8.5t9 21.5t-9 21.5t-22 8.5zM316 123q-8 -26 -14 -48q-5 -19 -10.5 -37t-7.5 -25t-3 -15t1 -14.5
t9.5 -10.5t21.5 -4h37h67h81h80h64h36q23 0 34 12t2 38q-5 13 -9.5 30.5t-9.5 34.5q-5 19 -11 39h-368zM336 498v228q0 11 2.5 23t10 21.5t20.5 15.5t34 6h188q31 0 51.5 -14.5t20.5 -52.5v-227h-327z" />
    <glyph glyph-name="uniE600" unicode="&#xe600;" 
d="M512 736q-37 0 -73 -6t-69 -17t-64 -27t-58.5 -36.5t-52 -45t-45 -52t-36.5 -58.5t-27 -64t-17 -69t-6 -73q0 -91 35.5 -173.5t95.5 -142.5t143 -95.5t174 -35.5t174 35.5t143 95.5t95 142.5t35 173.5t-35 174t-95 143t-143 95.5t-174 35.5zM448 79l-1 -1l-215 216l76 76
l140 -140l268 268l76 -76z" />
    <glyph glyph-name="uniE601" unicode="&#xe601;" 
d="M899 421h-49v138q0 65 -45.5 110.5t-109.5 45.5h-95q-58 0 -101 -38q-18 4 -36 4h-105q-35 0 -67 -14t-55 -37t-36.5 -54.5t-13.5 -66.5v-153h-54q-19 0 -34.5 -9t-24.5 -24.5t-9 -34.5v-353q0 -28 20 -47.5t48 -19.5h556q18 0 34 9t25 24.5t9 33.5v45h143q25 0 43 18
t18 43v319q0 16 -8.5 30.5t-22.5 22.5t-30 8zM556 421h-40v138q0 5 0.5 9t1 7.5t1.5 7.5q7 -5 12.5 -11t10 -13.5t8 -15.5t5 -16.5t1.5 -17.5v-88zM264 509q0 25 12.5 46.5t34 34t47.5 12.5h93q-6 -21 -6 -43v-138h-49q-25 0 -43 -18t-18 -43v-4h-71v153zM779 421h-145v88
q0 79 -60 131q13 4 26 4h95q35 0 59.5 -25t24.5 -60v-138z" />
    <glyph glyph-name="uniE602" unicode="&#xe602;" 
d="M484 259h46q64 0 110 45.5t46 109.5v166q0 42 -21 78t-57 57t-78 21h-46q-42 0 -78 -21t-56.5 -57t-20.5 -78v-166q0 -31 12 -60t33 -50t49.5 -33t60.5 -12zM676 175q-53 29 -168.5 29t-169.5 -29q-70 -30 -129 -95.5t-59 -117.5v-50q0 -30 21 -51t51 -21h571q15 0 28 6
t22.5 15.5t15.5 22.5t6 28v50q0 52 -59 117.5t-130 95.5z" />
    <glyph glyph-name="uniE603" unicode="&#xe603;" 
d="M427 736h178v-179h-178v179zM427 378h178v-179h-178v179zM427 20h178v-179h-178v179z" />
    <glyph glyph-name="uniE604" unicode="&#xe604;" 
d="M694 693h-353q-26 0 -45 -18.5t-19 -44.5v-705q0 -26 19 -44.5t45 -18.5h353q26 0 45 18.5t19 44.5v705q0 26 -19 44.5t-45 18.5zM452 650h131v-44h-131v44zM561 -67q0 -7 -3.5 -13t-9.5 -10t-14 -4h-33q-8 0 -14 4t-9.5 10t-3.5 13v34q0 7 3.5 13.5t9.5 10t14 3.5h33
q11 0 19 -8t8 -19v-34zM670 96q0 -11 -3 -20.5t-9 -17.5t-13.5 -13.5t-17.5 -9t-20 -3.5h-179q-26 0 -44.5 18.5t-18.5 45.5v403q0 26 18.5 44.5t44.5 18.5h179q9 0 17 -2t15 -6t13 -10t10 -13t6 -15t2 -17v-403z" />
    <glyph glyph-name="uniE605" unicode="&#xe605;" 
d="M788 361h-55v157q0 72 -51.5 123.5t-124.5 51.5h-107q-36 0 -68.5 -14t-56 -37.5t-37.5 -56t-14 -67.5v-157h-55q-29 0 -49.5 -20.5t-20.5 -48.5v-361q0 -29 20.5 -49.5t49.5 -20.5h569q29 0 49 20.5t20 49.5v361q0 28 -20 48.5t-49 20.5zM354 518q0 39 28 67t68 28h107
q40 0 68 -28t28 -67v-157h-299v157z" />
    <glyph glyph-name="uniE606" unicode="&#xe606;" 
d="M511 736q-73 0 -141 -22.5t-123 -64t-96.5 -96.5t-64 -123.5t-22.5 -141.5q0 -91 35.5 -173.5t95 -142.5t142.5 -95.5t174 -35.5q73 0 141.5 22.5t123.5 64t96.5 96.5t64 123t22.5 141q0 91 -35.5 174t-95.5 143t-143 95.5t-174 35.5zM509 9q-23 1 -40 18t-18 40
q0 26 18 44.5t44 17.5q24 -1 40.5 -17.5t17.5 -40.5q1 -26 -17.5 -44t-44.5 -18zM572 235q0 -23 -15 -39.5t-36 -16.5h-18q-13 0 -25 7.5t-18.5 20.5t-6.5 28l-22 277q0 23 15 39t36 16h59q21 0 35.5 -16t14.5 -39z" />
    <glyph glyph-name="uniE607" unicode="&#xe607;" 
d="M64 316h368v358l-368 -43v-315zM484 680v-364h475v420zM64 -52l368 -42v357h-368v-315zM484 -100l475 -55v418h-475v-363z" />
    <glyph glyph-name="uniE608" unicode="&#xe608;" 
d="M839.5 455q-22.5 0 -38.5 -16t-16 -39v-216q0 -12 4.5 -22t11.5 -17.5t17 -12t22 -4.5q22 0 38 16.5t16 39.5v216q0 23 -16 39t-38.5 16zM182 455q-7 0 -14 -2t-13 -5.5t-11 -8.5t-8.5 -11t-5.5 -13.5t-2 -14.5v-216q0 -12 4.5 -22t11.5 -17.5t17 -12t21 -4.5
q15 0 27.5 7.5t20 20.5t7.5 28v216q0 23 -16 39t-39 16zM270 454v-395q0 -18 12.5 -30.5t29.5 -12.5h49v-120q0 -23 16 -39.5t38.5 -16.5t38.5 16.5t16 39.5v120h84v-120q0 -23 16 -39.5t39 -16.5q15 0 27.5 7.5t19.5 20.5t7 28v120h49q6 0 11.5 1.5t10 4.5t8.5 6.5t6.5 8.5
t4 10.5t1.5 11.5v395h-484zM626 658l45 65q5 7 -1.5 11.5t-11.5 -2.5l-46 -68q-49 19 -101 19q-27 0 -52 -4.5t-49 -14.5l-46 68q-5 7 -11 2.5t-2 -11.5l45 -65q-54 -25 -88.5 -70t-38.5 -99h484q-4 54 -38.5 99t-88.5 70zM409 556q-8 0 -14 3.5t-9.5 9.5t-3.5 13.5
t3.5 13.5t9.5 9.5t14 3.5q11 0 19 -7.5t8 -18.5t-8 -19t-19 -8zM617 556q-11 0 -19 8t-8 19t8 18.5t19 7.5t18.5 -7.5t7.5 -18.5t-7.5 -19t-18.5 -8z" />
    <glyph glyph-name="uniE609" unicode="&#xe609;" 
d="M512 736q-91 0 -174 -35.5t-143 -95.5t-95.5 -143t-35.5 -174q0 -61 16 -119t45 -107t70.5 -90.5t90.5 -70t107 -45t119 -16.5q91 0 174 35.5t142.5 95.5t95 143t35.5 174t-35.5 174t-95 143t-142.5 95.5t-174 35.5zM171 288q0 97 50 179q1 -2 1.5 -4t0.5 -3v-4
q0 -1 -1 -2q-15 -25 -19.5 -56.5t-0.5 -61.5t11 -55t16 -47q14 -31 88.5 -63.5t104.5 -34.5q6 -1 12 -5.5t7 -6.5q17 -32 46 -58.5t63 -44.5t56.5 -27.5t44.5 -16.5q-67 -30 -139 -30q-70 0 -133 27t-108.5 72.5t-72.5 109t-27 132.5zM722 19q-18 30 -24 91q-2 18 -0.5 53.5
t-2.5 75t-17 45.5q-19 8 -71.5 -10t-84.5 -39q-79 -52 -114 -36q-23 11 -31.5 39t2.5 50q6 12 25 18.5t30 7.5t20 0l26 2q5 0 7 4.5t-1 8.5q-7 8 -14.5 16t-15.5 15q-11 8 -14.5 21.5t0 31t14.5 39.5q13 33 5 61t-27 38q-16 9 -36.5 -1.5t-48.5 -37.5q-22 -21 -50.5 -23
t-45.5 10q-3 2 -5 5q47 58 116 91.5t148 33.5q129 0 226 -86q-1 -5 -1.5 -13t-3 -24.5t-7.5 -24.5l-5 -8q-5 -8 -7 -12t-6 -12.5t-5 -14t-1 -12.5t4 -12t11 -8q14 -6 39 -5.5t43.5 2t36.5 -5.5q17 -51 17 -105q0 -80 -35 -150.5t-96 -118.5z" />
    <glyph glyph-name="uniE60A" unicode="&#xe60a;" 
d="M222 245q12 -78 61.5 -140t122.5 -90q-69 84 -79 230h-105zM406 562q-73 -28 -122.5 -89t-61.5 -139h105q5 70 26 129.5t53 98.5zM621 334q-3 52 -12.5 97t-23 77.5t-31.5 52t-38 21.5h-4h-3h-1q-40 -4 -69.5 -73.5t-35.5 -174.5h218zM512 736q-91 0 -174 -35.5
t-142.5 -95.5t-95 -142.5t-35.5 -173.5t35.5 -174t95 -143t142.5 -95.5t174 -35.5q61 0 119 16t107 45t90.5 70.5t70 90.5t45 107t16.5 119q0 91 -35.5 173.5t-95.5 142.5t-143 95.5t-174 35.5zM512 -69q-97 0 -179.5 48t-130 130.5t-47.5 179.5t47.5 179t130 130t179.5 48
t179.5 -48t130.5 -130t48 -179t-48 -179.5t-130.5 -130.5t-179.5 -48zM403 245q6 -105 35.5 -175.5t69.5 -74.5h4h4q27 3 49.5 35.5t37 88.5t18.5 126h-218zM802 334q-8 52 -33.5 97.5t-64 79t-86.5 51.5q68 -83 79 -228h105zM698 245q-6 -71 -26.5 -130.5t-53.5 -99.5
q24 9 46 22.5t41 30.5t35.5 37t28.5 42t20.5 47t12.5 51h-104z" />
    <glyph glyph-name="uniE60B" unicode="&#xe60b;" 
d="M925 -52l-137 164q-7 8 -18 9t-19 -6l-42 49q86 98 86 227q0 47 -12.5 91.5t-34.5 82.5t-54 69.5t-69.5 54t-82 34.5t-91.5 12q-70 0 -133.5 -27t-109.5 -73t-73.5 -110t-27.5 -134q0 -93 46 -172.5t125.5 -125.5t172.5 -46q106 0 194 60l40 -47v-1q-8 -6 -9 -17t6 -19
l137 -164q7 -8 17.5 -9t19.5 6l66 55q16 14 5 33q-1 3 -2 4zM211 391q0 49 19 93.5t51 77t76.5 51.5t93.5 19q100 0 170.5 -70.5t70.5 -170t-70.5 -170t-170.5 -70.5t-170 70.5t-70 169.5z" />
    <glyph glyph-name="uniE60C" unicode="&#xe60c;" 
d="M622 288v0l-215 448l-23 -11l209 -437l-209 -436l23 -11z" />
    <glyph glyph-name="uniE60D" unicode="&#xe60d;" 
d="M512 587q-58 -1 -124.5 -28.5t-122 -67t-102 -82.5t-73 -78.5t-26.5 -50.5q0 -16 24.5 -51.5t69.5 -79.5t99.5 -84t123 -66.5t131.5 -25.5t131.5 29.5t123 69.5t99.5 84.5t69.5 77.5t24.5 46q0 9 -19.5 35.5t-51.5 61t-77 71.5t-93 68t-103.5 51t-103.5 20zM512 75
q-56 0 -103 27.5t-74.5 74.5t-27.5 103q0 84 60 144t145 60t145 -60t60 -144.5t-60 -144.5t-145 -60zM428 279q0 -22 11.5 -41.5t30.5 -30.5t42 -11q34 0 58.5 24.5t24.5 58.5v0q0 23 -11.5 42t-30.5 30t-41.5 11t-41.5 -11t-30.5 -30t-11.5 -42z" />
    <glyph glyph-name="uniE60E" unicode="&#xe60e;" 
d="M622 725l-24 11l-214 -448l214 -447l24 11l-209 436z" />
    <glyph glyph-name="uniE60F" unicode="&#xe60f;" 
d="M407 234q-42 -3 -79.5 -35.5t-48 -76t11.5 -71.5t64.5 -25t80 36t48.5 76q3 14 2.5 27t-4 24t-10.5 20t-16.5 15t-22 8.5t-26.5 1.5zM512 735q-73 0 -141 -22.5t-123 -64t-96.5 -96.5t-64 -123t-22.5 -141q0 -91 35.5 -174t95 -143t142.5 -95t174 -35q61 0 119 16
t107 44.5t90.5 70t70.5 90.5t45 107t16 119t-16 119t-45 107t-70.5 90.5t-90.5 70t-107 44.5t-119 16zM420 380q3 5 3 11.5t3 14.5t11 20q2 3 5.5 5.5t6.5 4.5t5.5 4t4.5 3h2q-2 0 -4 -2t-6.5 -7t-5.5 -11q-1 -7 0 -17.5t-1 -16.5q-2 -5 -5 -10t-7 -9l-10 -6q-4 -4 -8.5 -6
t-8 -3.5t-5.5 -2.5l-2 -1q14 12 22 29zM740 453q-21 -10 -38 -25.5t-24 -25.5l-6 -10q2 21 23 46q17 21 77 49q2 1 5 3t5 4l6 2l3.5 3.5t3.5 3t3 2.5l2 2l1 1l1 1q-1 -1 -2 -3.5t-5.5 -8.5t-10.5 -12.5t-18 -15t-26 -16.5zM813 564q-5 -15 -27.5 -35t-47.5 -37t-48 -39.5
t-29 -39.5q-3 -11 -4.5 -21.5t-1 -16t2 -19.5t1.5 -19q7 2 12 3.5t12.5 4t14.5 4.5q11 4 20.5 13t14.5 18t9 17.5t5 14.5l2 6q0 -2 0.5 -5.5t0.5 -12.5t-0.5 -17.5t-3 -19t-7.5 -18.5t-12.5 -14.5t-19 -13.5t-21.5 -11.5t-27 -11.5q-1 -12 -3 -25t-5 -28q-8 -39 -28.5 -71
t-35 -45.5t-29.5 -22.5q-22 -61 -80.5 -101.5t-125.5 -40.5q-73 0 -114 48t-27 115q2 9 5 17.5t6.5 16.5t7.5 16q3 5 8.5 14.5t28 36t50.5 49.5q76 61 140 94q2 6 5.5 18.5t6 19.5t6 18t7 19t8 17.5t9.5 18.5q5 8 13 17t17 16t18.5 14t17.5 12t15 9l11 5l3 2
q-2 -1 -5.5 -3.5t-13 -11t-17 -18t-15.5 -25t-11 -31.5q-5 -29 -2 -60q23 15 39 34t21 31l5 12q0 -1 0.5 -2t0.5 -5v-8q0 -4 -0.5 -10t-1.5 -11.5t-3 -12.5t-4.5 -13.5t-6.5 -13t-8 -12.5q-14 -16 -38 -34q2 -20 1 -39q-1 -14 -3 -27.5t-5 -25.5q28 25 49 38q1 10 1.5 27
t1.5 29t2.5 26t4.5 26t8 21q11 22 45.5 44.5t77.5 45t57 32.5q18 13 24.5 28.5t3.5 23.5l-3 8q1 0 2.5 -1t6 -5t6.5 -9.5t3 -15t-4 -21.5z" />
    <glyph glyph-name="uniE610" unicode="&#xe610;" 
d="M772 569h-36v103q0 18 -8.5 32.5t-23.5 23t-32 8.5h-320q-13 0 -24.5 -5t-20.5 -13.5t-14 -20.5t-5 -25v-103h-224v-541q0 -77 55 -132t132 -55h521q77 0 132 55t55 132v65v288v188h-187zM400 624h224v-55h-224v55zM176 456h672v-167h-672v37v130zM848 83
q0 -53 -41.5 -91t-99.5 -38h-391q-58 0 -99 38t-41 91v45v104h223v-112h225v112h224v-104v-45z" />
    <glyph glyph-name="uniE611" unicode="&#xe611;" 
d="M510 736q-73 0 -141 -22.5t-123 -64t-96.5 -96.5t-64 -123.5t-22.5 -141.5q0 -91 35.5 -173.5t95.5 -142.5t142.5 -95.5t173.5 -35.5t174 35.5t143 95.5t95.5 142.5t35.5 173.5t-35.5 174t-95.5 143t-143 95.5t-174 35.5zM644 230l76 -76l-75 -76l-1 1l-134 133
l-133 -133l-1 -1l-76 76l134 134l-134 134l76 76l134 -134l134 134l76 -76l-134 -134z" />
    <glyph glyph-name="uniE612" unicode="&#xe612;" 
d="M851 662q-79 78 -191 74q-100 -4 -171 -74l-319 -319q-5 -5 -5 -12t5 -12l27 -26q5 -5 12 -5t12 5l306 305q55 56 135 59.5t129 -46.5l17 -17q31 -31 37.5 -83t-12.5 -104t-56 -89l-257 -258v1l-90 -91q-45 -44 -103 -49.5t-95 31.5l-13 13q-37 38 -30 93.5t52 100.5
l297 297q32 26 60.5 30.5t53.5 -17.5l9 -9q17 -17 17.5 -39t-12.5 -44t-36 -46l-194 -194q-2 -1 -3 -2q-4 -4 -5.5 -9t0 -10t5.5 -9l18 -18q5 -5 12.5 -5t13.5 6l221 221q43 42 46.5 99t-34.5 95l-13 13q-24 25 -59.5 32.5t-72 -4t-64.5 -38.5l-13 -14l-5 -5l-318 -317
q-56 -56 -58 -133t50 -130l19 -18q43 -44 106 -50t117 27q38 17 67 47l385 385q29 29 47.5 66t24 76t0 78t-24 75.5t-47.5 66.5z" />
    <glyph glyph-name="uniE613" unicode="&#xe613;" 
d="M64 608h127v-128h-127v128zM276 608h682v-128h-682v128zM64 352h127v-127h-127v127zM276 352h682v-127h-682v127zM64 97h127v-128h-127v128zM276 97h682v-128h-682v128z" />
    <glyph glyph-name="uniE614" unicode="&#xe614;" 
d="M945 537h-137q0 21 -24 54t-62.5 65.5t-95.5 55.5t-115 23t-115.5 -22.5t-96 -54t-62.5 -65t-24 -56.5h-136q-6 0 -9.5 -4t-3.5 -9v-671q0 -5 3.5 -9t9.5 -4h868q13 0 13 13v671q0 5 -4 9t-9 4zM511 638q70 0 129.5 -35.5t68.5 -65.5h-397q8 31 67.5 66t131.5 35z
M858 -47q0 -6 -4 -9.5t-9 -3.5h-668q-6 0 -9.5 3.5t-3.5 9.5v220q0 5 3.5 9t9.5 4h186q0 -33 16 -60.5t43.5 -43.5t60.5 -16h58q49 0 84.5 35t35.5 85h184q5 0 9 -4t4 -9v-220zM568 225v-21v-2v-1q-1 -8 -4.5 -16t-9.5 -14t-14.5 -9t-16.5 -3h-22q-7 0 -13.5 2t-12 6t-10 9
t-7 11.5t-2.5 13.5v1v2v21q0 19 13 32t32 13h22q18 0 31.5 -13t13.5 -32zM858 252q0 -6 -4 -9.5t-9 -3.5h-184v5q0 49 -35.5 84.5t-84.5 35.5h-58q-50 0 -85 -35.5t-35 -84.5v-5h-186q-6 0 -9.5 3.5t-3.5 9.5v170q0 5 3.5 9t9.5 4h668q2 0 4.5 -1t4.5 -3t3 -4t1 -5v-170z
" />
    <glyph glyph-name="uniE615" unicode="&#xe615;" 
d="M465 412q10 10 11 36t-7 58.5t-29.5 71t-52 69t-68.5 52t-70.5 30t-58.5 7.5t-37 -12t-12.5 -37.5t7 -59t30 -70.5t52.5 -68q71 -71 163 -87q53 -8 72 10zM794.5 488.5q30.5 30.5 52 68.5t30 70.5t7.5 59t-12 37.5t-37 12t-59 -7.5t-71 -30t-68.5 -52t-52 -69t-29.5 -71
t-7 -58.5t11.5 -36.5t36.5 -11.5t59 7t71 29.5t68.5 52zM456 334h-316q-19 0 -32.5 -13.5t-13.5 -32.5v-89v-45h46h439l-314 -39q-10 -1 -17 -7.5t-10.5 -15.5t-1.5 -19l33 -202q2 -13 12.5 -22t24.5 -9h393q14 0 24.5 9t12.5 23l39 282h86q19 0 32.5 13.5t13.5 31.5v135
h-451z" />
    <glyph glyph-name="uniE616" unicode="&#xe616;" 
d="M957 568q-1 12 -9.5 19.5t-20.5 7.5h-94q-2 6 -5.5 11t-7.5 9.5t-9.5 8.5t-11 6.5t-12.5 4t-14 1.5h-523q-20 0 -36 -11.5t-23 -29.5h-95q-7 0 -13.5 -3.5t-11 -9.5t-5.5 -14q-4 -23 -2 -74t15 -88q24 -81 142 -153q3 -2 53 -32q15 -10 30 -19q39 -23 64 -34
q31 -47 62 -85l2 -3q2 -4 5 -7.5t7 -6.5l1 -1h-157q-17 0 -31 -8.5t-22 -22.5t-8 -30v0v-1v-60h570v60v1v0q0 12 -4.5 23.5t-13 19.5t-19.5 13t-24 5h-158q10 6 15 15l3 6q30 37 60 82q25 11 64 34q8 5 15.5 9.5t14.5 9.5q5 3 16 10t20 12t17 10q55 34 93 75.5t49 77.5
q22 64 12 162zM291 290q-8 5 -17 11q-3 2 -9.5 6t-11.5 7l-10 6q-16 10 -30.5 21.5t-25 23t-18 23.5t-10.5 22q-4 12 -6 25.5t-2.5 26.5t0 23.5t1.5 19.5q0 5 2.5 8.5t6.5 5.5t8 2h35l1 -2q15 -90 91 -231q-1 0 -2 1t-3 1zM865 410q-7 -21 -29 -45.5t-55 -44.5
q-2 -1 -31 -19q-9 -6 -18 -11q-1 -1 -3 -2q77 143 92 233h33q7 0 12 -4.5t6 -11.5q6 -57 -7 -95z" />
    <glyph glyph-name="uniE617" unicode="&#xe617;" 
d="M769 550h-52q17 35 19 70.5t-11 63.5t-38 42q-39 21 -87.5 -0.5t-79.5 -73.5h-101v-1q-30 53 -78.5 74.5t-88.5 0.5q-38 -21 -46.5 -72t16.5 -104h-49q-29 0 -54 -14.5t-39.5 -39.5t-14.5 -54v-139q0 -28 13 -52t36 -38v-223q0 -41 20 -75.5t55 -54.5t75 -20h414
q62 0 106 44t44 106v223q15 9 26 23t17 31.5t6 35.5v139q0 22 -8.5 42t-23 34.5t-34.5 23t-42 8.5zM566 620q15 28 40 39.5t45 0.5t24 -38t-11 -55q-5 -9 -12 -17h-93q-6 14 -4.5 33t11.5 37zM288 660q20 11 45 -0.5t40 -39.5q21 -38 7 -70h-93l-6 8q-3 4 -5 9q-5 8 -7.5 16
t-3.5 16t-1 15.5t1.5 14.5t5 12.5t8 10.5t9.5 8zM166 329v87q0 5 1.5 10t4.5 9t7 7t9 5t11 2h188q23 0 31 -22q2 -5 2 -11v-87q0 -7 -2.5 -13t-7 -10.5t-10.5 -7t-13 -2.5h-188q-9 0 -16.5 4.5t-12 12t-4.5 16.5zM421 -22q0 -15 -11 -26t-27 -11h-128q-16 0 -27 11t-11 26
v230q0 6 2 11.5t5.5 10.5t8 8.5t10.5 5t12 1.5h128q10 0 19 -5t14 -13.5t5 -18.5v-230zM725 -22q0 -15 -11 -26t-27 -11h-128q-16 0 -27 11t-11 26v230q0 15 11 26t27 11h128q8 0 15 -3t12 -8t8 -12t3 -14v-230zM776 329q0 -7 -2.5 -13t-7 -10.5t-10.5 -7t-13 -2.5h-188
q-14 0 -23.5 9.5t-9.5 23.5v87q0 7 2.5 13t7 10t10.5 7t13 3h188q3 0 6 -0.5t5.5 -1.5t5 -2.5t5 -3.5t4 -4t3 -4.5t2.5 -5t1.5 -5.5t0.5 -6v-87z" />
    <glyph glyph-name="uniE618" unicode="&#xe618;" 
d="M346 736q-112 -2 -193.5 -87.5t-83.5 -199.5h-1v-609h608q113 2 196 83.5t84 193.5h1v619h-611zM679 -53h-500v500h1q1 46 23 85t59.5 62t83.5 23h493v-500q-1 -69 -47.5 -118.5t-112.5 -51.5zM316 462h393v-110h-393v110zM316 223h393v-110h-393v110z" />
    <glyph glyph-name="uniE619" unicode="&#xe619;" 
d="M513 736q-91 0 -174 -35.5t-142.5 -95t-95 -142.5t-35.5 -174t35.5 -173.5t95 -142.5t142.5 -95.5t173.5 -35.5t173.5 35.5t143 95.5t95 142.5t35 173.5q0 73 -22.5 141t-63.5 123t-96 96.5t-123.5 64t-140.5 22.5zM513 647q72 0 138.5 -28.5t114 -76.5t76 -114
t28.5 -139q0 -67 -24 -129l-400 231q-3 5 -4 10.5t-1 12.5q0 28 17.5 43.5t41.5 15.5q20 1 40 0q11 0 20.5 -5.5t17.5 -14.5h101q-28 89 -140 102v54h-39v-54q-54 -4 -95 -32t-53 -78l-118 68q50 62 123 98t156 36zM513 -68q-98 0 -180 47.5t-130 130t-48 179.5
q0 16 1.5 31.5t4 30.5t6.5 30t9 29t11 27l422 -244q1 -3 1 -6v-7q0 -29 -19.5 -46.5t-46.5 -21.5v0h-1q-2 0 -4 -1q-11 -1 -20.5 -1t-22.5 2q-37 10 -54 41h-97q31 -114 155 -124v-60h39v60q69 5 107.5 38t51.5 75l105 -61q-32 -45 -77 -78.5t-99.5 -52t-113.5 -18.5z" />
    <glyph glyph-name="uniE61A" unicode="&#xe61a;" 
d="M844 377q-12 44 -34 83l65 98l-93 93l-98 -65q-13 7 -26.5 13.5t-27.5 11.5t-29 9l-23 116h-132l-23 -116q-44 -11 -83 -34l-98 65l-93 -93l65 -98q-22 -39 -34 -83l-115 -23v-131l115 -24q12 -43 34 -82l-65 -99l93 -93l98 66q39 -23 83 -35l23 -115h132l23 115
q15 4 29 9.5t27.5 11.5t26.5 14l98 -66l93 93l-65 99q22 39 34 82l116 24v131zM668 288q0 -25 -8 -48.5t-22.5 -43t-33.5 -33.5t-43 -22t-49 -8q-64 0 -109.5 45.5t-45.5 110t45.5 110t109.5 45.5q76 0 123 -60q32 -43 33 -96z" />
    <glyph glyph-name="uniE61B" unicode="&#xe61b;" 
d="M512 736q-91 0 -173.5 -35.5t-142.5 -95.5t-95.5 -142.5t-35.5 -173.5q0 -73 23 -141t64 -123t96 -96.5t123 -64t141 -22.5t141 22.5t123 64t96.5 96.5t64 123t22.5 141q0 91 -35.5 173.5t-95 142.5t-142.5 95.5t-174 35.5zM770 330l-123 -105l33 -152q2 -9 -6 -14.5
t-17 -1.5l-145 77q-3 -2 -9.5 -5t-24.5 -13t-35 -18.5t-38 -20t-38 -20.5q-9 -4 -17 1.5t-6 14.5l34 152q-74 63 -123 105q-8 6 -5 15t14 10l165 17l69 142q4 9 14 9q3 0 5 -1l4 -2q2 -1 3.5 -2.5t2.5 -3.5l68 -142q11 -1 29.5 -3t63 -6.5t73.5 -7.5q5 0 8.5 -3t4.5 -7
q3 -9 -4 -15zM650 313l-92 10l-38 78q-1 3 -3 4t-5 1q-5 0 -8 -5l-38 -78l-91 -10q-6 0 -8 -5v-4q0 -1 0.5 -2.5t2.5 -2.5q7 -6 17 -14.5t18.5 -15.5t16 -13.5t12.5 -10.5l4 -4l-19 -84q0 -5 4 -8t9 -1l80 43l80 -43q5 -2 9.5 1t3.5 8l-18 84l68 58q4 4 2 9q0 2 -2 3.5
t-5 1.5z" />
    <glyph glyph-name="uniE61C" unicode="&#xe61c;" 
d="M958 344h-112v-392h-671v392h-111v-503h77v-1l817 1v503zM509 121l223 223h-168v392h-111v-392h-168z" />
    <glyph glyph-name="uniE61D" unicode="&#xe61d;" 
d="M509 247l-201 139v-254q0 -6 4 -9.5t10 -3.5h380q5 0 9 3.5t4 9.5v258l-190 -143q-8 -6 -16 0zM525 316l185 139q-3 3 -8 3h-380q-3 0 -6 -1.5t-5 -3.5l198 -137q8 -6 16 0zM512 736q-91 0 -174 -35.5t-143 -95.5t-95.5 -143t-35.5 -174t35.5 -174t95.5 -143t143 -95
t174 -35t174 35t143 95t95 143t35 174t-35 174t-95 143t-143 95.5t-174 35.5zM780 82q0 -7 -5 -12.5t-12 -5.5h-502q-5 0 -9 2.5t-6.5 6.5t-2.5 9v412q0 7 5.5 12.5t12.5 5.5h502q2 0 4.5 -1t4.5 -2t3.5 -2.5t2.5 -3.5t1.5 -4.5t0.5 -4.5v-412z" />
    <glyph glyph-name="uniE61E" unicode="&#xe61e;" 
d="M514 290l445 319v63h-631q-27 0 -53.5 -5.5t-50.5 -15.5t-45 -23.5t-39 -30.5t-33 -37zM514 185v0v0l-443 295q-6 -24 -6 -48v-527h631v1q108 1 184.5 70.5t77.5 168.5h1v360z" />
    <glyph glyph-name="uniE61F" unicode="&#xe61f;" 
d="M342 736q-112 -2 -193.5 -87.5t-83.5 -199.5h-1v-609h608q113 2 195.5 83.5t84.5 193.5h1v619h-611zM675 -53h-500v117h651q-17 -50 -58 -82.5t-93 -34.5zM835 174h-660v273h1q1 70 49 120t117 50h493v-443zM342 506h333v-110h-333v110z" />
    <glyph glyph-name="uniE620" unicode="&#xe620;" 
d="M736 228l-203 203q-9 9 -21 9t-20 -9l-253 -252v-273h182v162q0 27 19.5 46.5t46.5 19.5h50q28 0 47 -19.5t19 -46.5v-162h182v273zM956 238l-412 421q-6 5 -13 7.5t-15 3.5h-1h-4h-3h-1q-4 -1 -7.5 -1.5t-7.5 -2t-7 -3.5l-6 -4l-413 -421q-3 -4 -1 -9t7 -5h120q2 0 4 2
l315 307h1l315 -307q0 -1 1.5 -1.5t2.5 -0.5h120q5 0 7 5t-2 9z" />
    <glyph glyph-name="uniE621" unicode="&#xe621;" 
d="M809 226h-35h-6h-32v-155q-3 -59 -47 -89.5t-112 -30.5h-281v275h-32h-6h-34q-16 0 -27.5 -11t-11.5 -27v-347h70v-1h391q83 7 139 60.5t62 140.5v19v128q0 16 -11.5 27t-26.5 11zM944 393l-388 329l-1 1q-3 2 -6.5 3.5t-7.5 3t-8 2.5t-8 1.5t-8 1.5h-1h-5h-5h-1
q-22 -2 -38 -12v-1l-386 -327l-1 -1v-159q0 -3 3 -1l427 346l1 1q1 0 1 -1l427 -346l4 -2h1q1 1 1 2v157z" />
    <glyph glyph-name="uniE622" unicode="&#xe622;" 
d="M541 303q-10 22 -20 41l-22 -6q-159 -39 -280 -23q-1 -8 -1 -15q0 -108 71 -191q35 64 100 116.5t152 77.5zM493 397q-60 111 -115 164q-56 -28 -95.5 -77.5t-54.5 -110.5q131 -16 265 24zM700 525q-81 69 -188 69q-11 0 -22 -1t-22 -2.5t-21 -4.5q52 -59 109 -166
q87 38 144 105zM591 351q4 -8 8 -16.5t8 -16.5q35 5 69.5 5.5t66.5 -3.5t62 -12q-3 97 -62 173q-31 -34 -71 -63.5t-88 -50.5q4 -9 7 -16zM512 748q-61 0 -119 -16t-107 -45t-90.5 -70.5t-70.5 -90.5t-45 -107t-16 -119t16 -119t45 -107t70.5 -90.5t90.5 -70t107 -45
t119 -16.5q91 0 174 35.5t143 95.5t95.5 143t35.5 174q0 52 -12 102.5t-34 94.5t-52.5 83t-69.5 69.5t-83 52.5t-94.5 34t-102.5 12zM512 -57q-73 0 -139 28t-114 76t-76.5 114t-28.5 139q0 97 48 179.5t130.5 130.5t179.5 48t179.5 -48t130 -130.5t47.5 -179.5
q0 -143 -99 -247q-98 -102 -239 -110h-19zM631 259q21 -55 33 -106t14 -94q32 22 57.5 51.5t42.5 65.5t23 76q-80 21 -170 7zM542 236q-138 -49 -209 -169q79 -60 179 -60q59 0 113 23q-8 94 -58 215l-6 -2q-3 -1 -6.5 -2t-6.5 -2.5t-6 -2.5z" />
    <glyph glyph-name="uniE623" unicode="&#xe623;" 
d="M429 425q3 10 1 23.5t0 23.5q2 8 7.5 15t9.5 10l4 3q-22 -11 -31 -23q-8 -11 -12.5 -19t-5.5 -14t-1.5 -10.5t-1 -10t-3.5 -10.5q-2 -5 -5 -9.5t-5.5 -8t-5.5 -7t-6 -6.5l-4 -4q-2 -2 -4 -3l-1 -1q3 1 6.5 2.5t13 6t17.5 10t16 14.5t11 18zM875 559q-17 -8 -28.5 -13.5
t-27.5 -14.5t-28 -18.5t-20 -19.5q-13 -15 -21 -31t-9 -24l-2 -9q0 1 1 2t3.5 5t5.5 8t8 10t10.5 11.5t12.5 12t15 12.5t17.5 12t19.5 12q32 15 53 34t26 30l6 11q-1 -1 -2.5 -2t-5.5 -5t-8.5 -7.5t-11.5 -7.5zM913 736q0 -1 0.5 -2.5t2 -6.5t1.5 -10.5t-1.5 -13.5
t-5.5 -15.5t-12 -16.5t-19 -18q-19 -13 -77.5 -43.5t-105.5 -61.5t-62 -60q-9 -16 -14 -39.5t-6.5 -42t-2.5 -49.5t-2 -45q-16 -10 -33 -23.5t-35 -28.5q10 34 12 72v19v17q0 8 -1 17q33 24 51 46q8 10 14.5 22t9.5 23.5t5.5 22.5t3 20.5t0.5 16.5t-1 11v4l-15 -30
q-28 -45 -74 -75q-4 42 3 82q3 16 9 31.5t14 27t16.5 22t16.5 18t14.5 13t10.5 7.5l4 3l-6 -3l-14 -8l-20 -12q-11 -6 -24.5 -15.5t-25 -19.5t-22.5 -22t-18 -24q-8 -13 -15 -27t-13.5 -32t-10 -28.5t-10.5 -33t-9 -29.5q-87 -45 -191 -129q-38 -31 -67.5 -65t-40.5 -52
l-10 -19q-18 -33 -26 -67q-20 -93 36.5 -158.5t156.5 -65.5q91 0 170.5 56t109.5 139q14 8 28.5 21t35 35.5t37.5 57t26 75.5q3 14 5 27t3.5 23.5t2.5 21.5q46 20 71.5 35t37.5 35q10 17 13 41.5t2 40.5l-2 17q0 -1 -0.5 -2.5t-2 -7t-3.5 -10.5l-5 -13q-3 -7 -7 -13.5
t-9.5 -13.5t-11.5 -13t-13.5 -11.5t-16.5 -8.5q-23 -9 -53 -17q-1 7 -2 18t-2 17t-1 15.5t0.5 16.5t2 16.5t5.5 19.5q8 24 39.5 54t65.5 54t64.5 51.5t37.5 46.5q5 17 5 29.5t-4 20.5t-8.5 13t-8.5 7zM483 83q-15 -59 -66 -103.5t-108.5 -48.5t-88 34.5t-16 97t65.5 103
t109 49.5q68 5 96 -47q19 -37 8 -85z" />
    <glyph glyph-name="uniE624" unicode="&#xe624;" 
d="M512 735q-73 0 -141 -22.5t-123 -64t-96.5 -96.5t-64 -123t-22.5 -141t22.5 -141.5t64 -123.5t96.5 -96t123 -64t141 -23q91 0 174 35.5t143 95.5t95.5 143t35.5 174t-35.5 174t-95.5 142.5t-143 95t-174 35.5zM702 96q0 -5 -3 -10t-8 -8t-11 -3h-1h-1h-380
q-9 0 -15.5 6.5t-6.5 14.5v0v383q0 9 6.5 15.5t15.5 6.5h1h2h339q9 0 15.5 -6t6.5 -15t-6 -15.5t-15 -6.5h-310q-5 0 -8.5 -3.5t-3.5 -8.5v-317q0 -5 3.5 -8t7.5 -3h316q6 0 9.5 3.5t3.5 8.5v137q0 9 6.5 15t15 6t15 -6t6.5 -15v-171zM739 409l-238 -239q-9 -8 -21.5 -8
t-21.5 8v1q-5 5 -7 10.5t-2 11t2 11t7 10.5l238 238q6 6 13.5 8t15.5 0t14 -8q4 -4 6 -8.5t3 -9t0 -9t-3 -8.5t-6 -8z" />
    <glyph glyph-name="uniE625" unicode="&#xe625;" 
d="M829 291q-17 0 -28.5 -12t-11.5 -29v-258q0 -10 -7 -17t-17 -7h-599q-9 0 -15.5 6.5t-6.5 15.5v600q0 2 0.5 4t1.5 4l2 4l2 2q1 2 2.5 3.5t3 2t3.5 1.5t4 1.5t4 0.5h587q17 0 29 12t11 29q0 16 -12.5 27.5t-28.5 11.5h-643h-3h-3q-4 0 -8 -1t-7.5 -2.5t-6.5 -3.5t-6 -4.5
t-5 -6t-3.5 -7t-2.5 -7.5t-1 -8v-725v0q0 -9 3 -16t8.5 -12.5t13 -9t15.5 -3.5h720l3 1q1 -1 2 -1q5 0 9.5 1.5t8.5 3.5t7.5 4.5t6 6t4.5 7.5t3 8.5t1 9.5v322q0 6 -1.5 11t-4 9.5t-6 8.5t-8 6.5t-10 4t-10.5 1.5zM945 597l-9 8q-15 16 -36.5 16t-36.5 -16l-460 -459
q-15 -15 -15 -36.5t15 -36.5l9 -9q6 -6 13.5 -9.5t15.5 -4.5t16 0t15.5 4.5t13.5 9.5l459 459q15 16 15 37t-15 37z" />
    <glyph glyph-name="uniE626" unicode="&#xe626;" 
d="M503 736v-1h-10q-116 0 -215 -57.5t-156.5 -156t-57.5 -215.5v-18v-447h457h9q116 0 215 57.5t156.5 156.5t57.5 215v10v456h-456zM717.5 392q-42.5 0 -73 30t-30.5 73t30.5 73t73 30t73 -30t30.5 -73t-30.5 -73t-73 -30z" />
    <glyph glyph-name="uniE627" unicode="&#xe627;" 
d="M950 525l-91 92q-6 6 -14 8t-15.5 0t-13.5 -8l-100 -99l-307 -310q-6 -6 -12 0l-191 196q-8 8 -19.5 8t-19.5 -8l-95 -95q-8 -8 -8 -19.5t8 -19.5l306 -307q1 -1 2 -1.5t2 -1.5v0q9 -9 21.5 -9t20.5 9l526 523q9 9 9 21.5t-9 20.5z" />
    <glyph glyph-name="uniE628" unicode="&#xe628;" 
d="M959 133v579h-631q-108 -1 -185 -78.5t-79 -184.5v-580h632v1q71 1 131.5 36t96 95.5t35.5 131.5h-105q-1 -33 -13.5 -62.5t-33 -51.5t-49.5 -35t-62 -13h-526v470l326 -247q1 0 2 -0.5t5 -1.5l8 -2q4 -1 10 -1.5t12 -0.5t13.5 1.5t14.5 4.5l293 239v-300h105zM544 287
q-15 -6 -30 0l-320 246q22 35 57 56t77 21h526v-65z" />
    <glyph glyph-name="uniE629" unicode="&#xe629;" 
d="M328 628q-108 -1 -185 -63t-79 -149v-467l632 1q108 1 185 62.5t78 148.5h1v467h-632zM736 233h-168v-169h-112v169h-168v111h168v169h112v-169h168v-111z" />
    <glyph glyph-name="uniE62A" unicode="&#xe62a;" 
d="M277 288q0 -38 12 -74t33.5 -65t50.5 -50.5t65 -33.5t74 -12q97 0 166 69t69 166q0 64 -31.5 118t-85.5 85.5t-118 31.5q-97 0 -166 -69t-69 -166z" />
    <glyph glyph-name="uniE62B" unicode="&#xe62b;" 
d="M512 736q-46 0 -90.5 -9.5t-84 -26t-76 -41t-66.5 -54.5t-54.5 -66.5t-41.5 -76t-26 -84t-9 -90.5q0 -91 35.5 -174t95.5 -143t143 -95t174 -35t173.5 35t142.5 95t95.5 143t35.5 174t-35.5 174t-95.5 143t-142.5 95.5t-173.5 35.5zM703 92l-1 -2v-16q0 -9 -6 -15t-14 -6
h-340q-19 0 -21 18v3v336q0 4 2 7.5t6 6t8 2.5h26q7 0 11.5 -5t4.5 -11v-298h265v296q0 8 5 13t13 5h23q5 0 9 -2.5t6.5 -6.5t2.5 -9v-316zM441 154v234q0 8 4 14t9 6h12q6 0 9.5 -6t3.5 -14v-234q0 -8 -3.5 -13.5t-9.5 -5.5h-12q-3 0 -5 1.5t-4 4t-3 6t-1 7.5zM544 154v234
q0 8 3.5 14t9.5 6h12q4 0 7 -3t4.5 -7.5t1.5 -9.5v-234q0 -3 -0.5 -6t-2 -5.5t-3 -4t-3.5 -2.5t-4 -1h-12q-4 0 -7 2.5t-4.5 7t-1.5 9.5zM732 457q0 -9 -6 -15t-15 -6h-399q-8 0 -14.5 6t-6.5 15v16q0 6 3 11t8 7.5t10 2.5h156v12q0 7 5 12t12 5h53q3 0 5 -0.5t4 -1.5
t3.5 -2.5t2.5 -3.5t2 -4.5t1 -4.5v-12h155q17 0 20 -16q1 -2 1 -5v-16z" />
    <glyph glyph-name="uniE62C" unicode="&#xe62c;" 
d="M621 -4q10 0 17.5 11.5t7.5 26.5v444q0 16 -7.5 27t-17.5 11h-23q-5 0 -10 -3t-8 -8t-5 -12t-2 -15v-444q0 -6 1 -11.5t3.5 -10.5t5.5 -8.5t7 -5.5t8 -2h23zM426 -4q10 0 17 11.5t7 26.5v444q0 16 -7 27t-17 11h-24q-10 0 -17.5 -11t-7.5 -27v-444q0 -15 7.5 -26.5
t17.5 -11.5h24zM841 550h-43q-14 0 -24 -9.5t-10 -23.5v-564h-504v567q0 5 -1.5 9.5t-4.5 8.5t-6.5 6.5t-8.5 4t-10 1.5h-49q-13 0 -22 -9t-9 -21v-604v-3v-32q0 -17 11.5 -28.5t27.5 -11.5h647q16 0 28 11.5t12 28.5v28v7v601q0 14 -10 23.5t-24 9.5zM891 681h-296v22
q0 14 -9.5 23.5t-22.5 9.5h-102q-14 0 -23.5 -9.5t-9.5 -23.5v-22h-295q-17 0 -29 -12t-12 -28v-31q0 -17 12 -29t29 -12h758q10 0 19.5 5.5t15 15t5.5 20.5v31q0 16 -12 28t-28 12z" />
    <glyph glyph-name="uniE62D" unicode="&#xe62d;" 
d="M512 736q-118 0 -202 -84t-84 -203q0 -83 45 -153q26 -21 40 6q1 10 0 15.5t-4 9.5l-1 1v2v0q-32 55 -32 119q0 99 69.5 169t168.5 70t168.5 -70t69.5 -169q0 -32 -8.5 -63t-24 -57t-37.5 -48t-48 -37.5t-57 -24t-63 -8.5q-8 0 -16.5 0.5t-16.5 2t-16 2.5h-1h-1
q-1 1 -3 1h-6h-6q-3 0 -5 -1q-2 0 -3 -1v0q-24 -11 -11 -34l1 -1q1 -1 2.5 -2t3.5 -2t3.5 -2t2.5 -1q36 -10 72 -10q118 0 202 84t84 202.5t-84 202.5t-202 84v0zM525 549q-16 0 -30.5 -5t-26.5 -14t-21 -21t-13.5 -26.5t-4.5 -30.5q0 -17 6 -34q-10 -12 -20.5 -24.5
t-19 -24.5t-17.5 -25q-129 -192 -113 -482q1 -18 19 -21q20 -3 25 14q1 4 0 7q-15 271 105 455q22 34 47 63q28 -24 64 -24q39 0 67.5 28.5t28.5 67.5q0 12 -2.5 22.5t-7.5 20t-11.5 18t-15 15t-18 11.5t-20 7.5t-21.5 2.5z" />
    <glyph glyph-name="uniE62E" unicode="&#xe62e;" 
d="M512 736q-91 0 -174 -35.5t-143 -95.5t-95.5 -142.5t-35.5 -174t35.5 -174t95.5 -142.5t143 -95.5t174 -35.5t174 35.5t143 95.5t95 142.5t35 174t-35 174t-95 142.5t-143 95.5t-174 35.5zM685 117h-239q-29 0 -53.5 15t-39 39.5t-15.5 53.5v235h236q44 -1 77.5 -32.5
t33.5 -74.5v-236z" />
    <glyph glyph-name="uniE62F" unicode="&#xe62f;" 
d="M798 689h-571q-67 0 -115 -47.5t-48 -114.5v-472q0 -33 13 -63t35 -51.5t52 -34.5t63 -13h571q44 0 81 21.5t59 59t22 81.5v472q0 26 -8 51t-23.5 45t-35.5 35t-44.5 23t-50.5 8zM859 53q0 -16 -8 -30t-21.5 -22t-29.5 -8h-577q-24 0 -41.5 17.5t-17.5 42.5v279
q0 24 17.5 41.5t41.5 17.5h577q25 0 42 -17.5t17 -41.5v-279z" />
    <glyph glyph-name="uniE630" unicode="&#xe630;" 
d="M959 192h-117v-195h-661v195h-117v-311h104h791v311zM803 464h-233v273h-117v-273h-232l291 -350z" />
    <glyph glyph-name="uniE631" unicode="&#xe631;" 
d="M923 364l-91 88h-56l82 -81h-570v-41h672zM100 216l92 -89h55l-82 81h571v41h-672z" />
    <glyph glyph-name="uniE632" unicode="&#xe632;" 
d="M739 320q-8 3 -11 4.5t-6 6.5t2 12q23 58 0 90q-23 31 -77 31t-124 -30h-1q-23 -9 -22 5q0 3 1 6q23 73 -10 105q-18 19 -51 19t-73 -15.5t-85 -46.5t-87 -72q-64 -65 -99.5 -130.5t-35.5 -123.5q0 -71 56.5 -127.5t142 -84.5t180.5 -28q88 0 167 24t130.5 61.5
t81.5 82.5t30 88q0 14 -3.5 27.5t-9 24t-14 20.5t-18 17.5t-20.5 14t-22 11.5t-22 8zM454 -20q-72 -8 -145.5 19.5t-121 74.5t-52.5 95t31 91t99.5 69.5t137.5 30.5q64 4 124.5 -8.5t105.5 -36.5t73.5 -57t31.5 -69q7 -72 -81 -135t-203 -74zM902 593q-22 25 -49.5 42.5
t-56.5 26t-60.5 10.5t-61.5 -5q-9 -2 -16 -8t-9.5 -15t-0.5 -18q3 -14 15 -21.5t26 -5.5q43 10 86.5 -3.5t74.5 -48t40.5 -80t-4.5 -86.5q-1 -3 -1.5 -6t-0.5 -6t1 -6t2 -5.5t2.5 -5.5t3.5 -5t4.5 -4t5 -3.5t5.5 -2.5q9 -2 18 -0.5t16 8t10 15.5q12 40 11 80.5t-16.5 80.5
t-44.5 72zM811 511q-22 24 -51.5 33.5t-59.5 2.5q-8 -2 -14 -7t-8.5 -12.5t-0.5 -15.5q2 -12 12.5 -19t22.5 -4q32 7 54 -18q11 -11 14 -26t-2 -29q-1 -5 -1 -9.5t1.5 -9t4 -8.5t6.5 -6.5t8 -4.5q6 -2 12 -1t11 3.5t9 7t6 9.5q6 20 5.5 40t-8 39.5t-21.5 34.5zM455 274
q-22 6 -43.5 5.5t-43 -7t-39.5 -17t-33 -26.5t-24 -34q-24 -48 -3.5 -94.5t74.5 -63.5q56 -18 113 6t80 76q22 50 -2 95.5t-79 59.5zM400 111q-11 -17 -31 -23.5t-37 1.5q-18 7 -22.5 25t6.5 34q7 11 19 18t24 8.5t25 -3.5q11 -5 17.5 -14.5t6 -21.5t-7.5 -24zM448 172
q-3 -4 -7.5 -7t-9 -3.5t-9.5 1.5q-7 3 -8.5 9.5t2 13t11 9t14 0t9 -9t-1.5 -13.5z" />
    <glyph glyph-name="uniE633" unicode="&#xe633;" 
d="M897 288q-4 48 -40 80.5t-85 32.5q-15 0 -30 -3q-20 60 -71.5 98t-116.5 38q-36 0 -69 -12.5t-59 -34.5t-43 -52q-30 15 -63 15q-59 0 -101.5 -40.5t-45.5 -99.5q-46 -7 -77.5 -43t-31.5 -84q0 -34 17 -64t46.5 -47t64.5 -17q50 0 86 33l10 -8q5 -4 11 -7t12 -5.5
t12 -4.5t12.5 -3.5t13.5 -2.5t14 -1q62 0 101 50q22 -29 55 -46t71 -17q78 0 125 62q18 -29 48 -46t65 -17q27 0 51.5 10.5t42.5 28t28.5 42.5t10.5 51q0 24 -8 45.5t-22.5 39t-33.5 29.5z" />
    <glyph glyph-name="uniE634" unicode="&#xe634;" 
d="M512 736q-61 0 -119 -16t-107.5 -45t-90.5 -70t-70 -90.5t-45 -107.5t-16 -119q0 -91 35.5 -174t95.5 -143t143 -95t174 -35t174 35t143 95t95 143t35 174.5t-35 174t-95 142.5t-143 95.5t-174 35.5zM706 183q-1 -1 -2 -4t-4.5 -11t-8 -16.5t-11 -19.5t-13.5 -20
q1 -1 4 -2.5t11 -6t13.5 -10.5t9.5 -16t3 -21q0 -2 -0.5 -5t-5.5 -10.5t-14 -13t-29 -9.5t-48 -4q-3 1 -7.5 1.5t-18 3t-24.5 6t-22.5 10t-17.5 14.5h-19q-9 -13 -33.5 -21.5t-36.5 -10.5t-20 -3q-27 0 -47.5 4t-29.5 9.5t-14 13t-5.5 10.5t-0.5 5q-3 36 39 54l3 2
q-7 9 -14 20t-11.5 19.5t-7.5 16t-5 11.5l-2 4q-46 -75 -54 -15q-1 8 -1 29q5 30 20 58t28 40l12 13q-2 18 -1 31t4.5 21t6.5 12.5t6 5.5l3 2q1 38 11 69t24 50t33 32.5t35 20t33 9.5t24 3.5t11 0.5t10.5 -0.5t23.5 -3.5t33 -9.5t35 -20t33 -32.5t24.5 -50t11.5 -69
q3 -1 7 -4.5t9 -22t2 -45.5q6 -5 14 -14t24.5 -38t21.5 -59q3 -55 -16 -55q-14 1 -39 41z" />
    <glyph glyph-name="uniE635" unicode="&#xe635;" 
d="M512 736q-91 0 -174 -35.5t-143 -95.5t-95.5 -143t-35.5 -174t35.5 -173.5t95.5 -142.5t143 -95.5t174 -35.5t173.5 35.5t142.5 95.5t95.5 142.5t35.5 173.5q0 37 -6 73t-17 69t-27 64t-36 58.5t-45 52t-52.5 45t-58.5 36.5t-64 27t-69 17t-72 6zM667 176l-43 -43
l-112 113l-113 -113l-43 43l113 112l-113 113l43 43l113 -113l112 113l43 -43l-113 -113z" />
    <glyph glyph-name="uniE636" unicode="&#xe636;" 
d="M511 736q-72 0 -140.5 -22.5t-123.5 -64t-96.5 -96.5t-64 -123.5t-22.5 -141.5t22.5 -141t64 -123t96.5 -96.5t123.5 -64t140.5 -22.5q92 0 174.5 35t142.5 95t95.5 143t35.5 174t-35.5 174t-95.5 143t-142.5 95.5t-174.5 35.5zM761 293v-14q-1 -11 -5.5 -20.5t-12.5 -17
t-18 -11.5t-21 -4h-130v-187h-71q-11 1 -21 5.5t-17 12t-11.5 18t-4.5 21.5v130h-187v71q1 11 5.5 21t12 17t18 11t21.5 4h130v131v57h71q23 -2 38.5 -18.5t15.5 -38.5v-131h187v-57z" />
    <glyph glyph-name="uniE637" unicode="&#xe637;" 
d="M798 326q6 16 9.5 33.5t3.5 36.5q0 79 -56 134.5t-135 55.5q-32 0 -61.5 -10t-53 -27.5t-41 -42.5t-26.5 -54q-20 28 -51 43.5t-66 15.5q-60 0 -102 -42t-42 -102q0 -12 2 -24t6 -24q-35 -10 -62.5 -33.5t-43 -56.5t-15.5 -71q0 -69 49 -118t118 -49h206v149h-149
l243 261l242 -261h-149v-149h168q69 0 118 49t49 118q0 45 -21.5 83t-58.5 60.5t-81 24.5z" />
    <glyph glyph-name="uniE638" unicode="&#xe638;" 
d="M958 433q-5 16 -22 18q-32 3 -72.5 7t-76 8t-66.5 7t-50 5l-18 2l-117 241q-7 15 -24 15q-3 0 -5.5 -0.5t-5 -1.5t-4.5 -2.5t-3.5 -3t-3 -3.5t-2.5 -4l-117 -241l-283 -29q-17 -2 -22.5 -17.5t7.5 -26.5q38 -31 90.5 -75.5t85.5 -73.5l34 -29l-57 -259q-4 -16 10 -25.5
t29 -1.5l247 131l247 -131q15 -8 28.5 1.5t10.5 25.5l-57 259l210 178q12 11 7 26zM755 355l-116 -98l31 -144q2 -9 -5 -14q-4 -2 -8.5 -2t-7.5 1l-137 73q-82 -44 -137 -72q-8 -5 -16 0q-3 3 -4.5 6.5t-1.5 7.5q7 28 14.5 62t12.5 58l5 24q-7 6 -20 17t-44 37.5t-52 44.5
q-7 6 -4 14q1 4 4.5 6.5t7.5 2.5l157 17l64 133q4 8 13.5 8t13.5 -8l65 -133q11 -1 28 -3t59 -7l70 -7q9 -1 12 -9t-4 -15z" />
    <glyph glyph-name="uniE639" unicode="&#xe639;" 
d="M888 30q-2 35 -14 68.5t-32.5 61t-47.5 48.5v197q0 56 -24.5 105.5t-67.5 82.5t-97 44v5q0 39 -27.5 66.5t-66.5 27.5t-66.5 -27.5t-27.5 -66.5v-5q-54 -11 -97 -44t-67.5 -82.5t-24.5 -105.5v-197q-41 -31 -66 -78t-28 -100h94v-1h566v1h94zM484 -159h54q61 0 107 40.5
t54 101.5h-375q9 -75 73 -116q40 -26 87 -26z" />
    <glyph glyph-name="uniE63A" unicode="&#xe63a;" 
d="M370 349v-163q15 73 96 74l22 -1q7 58 46 85.5t82 27.5q5 0 10 -0.5t9 -1t8 -1.5t7 -3v48h-210q-9 0 -18.5 -2.5t-17 -6.5t-14 -10t-11 -13.5t-7 -15.5t-2.5 -17zM614 326q-17 -1 -31 -8.5t-23 -18.5t-16 -24t-10.5 -26t-5.5 -23.5t-3 -17.5l-1 -7q-18 8 -34.5 10.5
t-27.5 1t-20 -7t-14 -11.5t-9 -14t-5 -12.5t-2 -9.5h238v154q-3 5 -12 8.5t-17 4.5zM511 736q-72 0 -140.5 -22.5t-123.5 -64t-96.5 -96.5t-64 -123.5t-22.5 -141.5t22.5 -141t64 -123t96.5 -96.5t123.5 -64t141 -22.5t141 22.5t123.5 64t96.5 96.5t64 123t22.5 141
q0 91 -35.5 174t-95.5 143t-142.5 95.5t-174.5 35.5zM708 113v-3h-393v242q0 22 10 43t26.5 36.5t39 25t47.5 9.5h270v-353z" />
    <glyph glyph-name="uniE63B" unicode="&#xe63b;" 
d="M345 736q-112 -1 -193 -86.5t-83 -199.5h-1v-609h608q113 2 195.5 83t84.5 193v619h-611zM678 -52h-499v500h1q1 70 48.5 119.5t116.5 49.5h494v-500q-2 -68 -48 -117.5t-113 -51.5zM634 483q0 -28 20 -48t48.5 -20t48.5 20t20 48t-20 48t-48.5 20t-48.5 -20t-20 -48z
M560 314l-33 -43l-65 117q-7 13 -16.5 19.5t-18.5 6.5t-18 -6.5t-16 -19.5l-174 -311l-2 -7l-15 -24h33h564l-203 268q-7 10 -17.5 10t-18.5 -10z" />
    <glyph glyph-name="uniE63C" unicode="&#xe63c;" 
d="M511 265l-126 84v-154q0 -8 8 -8h238q8 0 8 8v155l-118 -85q-5 -4 -10 0zM521 306l116 83l-6 2h-238q-4 0 -6 -3l124 -82q5 -4 10 0zM910 625h-796q-21 0 -35.5 -14.5t-14.5 -35.5v-571q0 -21 14.5 -36t35.5 -15h796q21 0 35.5 15t14.5 36v571q0 13 -6.5 25t-18 18.5
t-25.5 6.5zM680 165q-2 -9 -11 -10h-314q-5 0 -8 3t-3 7v248q0 4 3 7.5t8 3.5h314q3 0 5.5 -1.5t4 -4t1.5 -5.5v-248z" />
    <glyph glyph-name="uniE63D" unicode="&#xe63d;" 
d="M503 736v-1h-10q-69 0 -134.5 -21.5t-118.5 -61t-92.5 -92.5t-61.5 -118t-22 -135v-18v-448h457v1h9q116 0 215 57.5t156.5 156t57.5 214.5v10h1v456h-457zM848 270q0 -86 -42.5 -159t-116 -116t-159.5 -43h-9v1h-345v344v10q0 65 25 123.5t67.5 101.5t101.5 68t123 25
h10h345v-345v-10zM686 539q-2 0 -5 -1q-16 -4 -36 -11.5t-60 -25.5t-87.5 -51.5t-90.5 -76.5v61q0 18 -13 30.5t-30 12.5h-1q-12 0 -22 -5.5t-16 -15.5t-6 -22v-152q0 -7 2 -14q-41 -62 -71 -134q-4 -11 -6 -16v-3q-3 -8 -2 -19t4 -21t16.5 -16.5t36.5 -6.5q10 1 24 18
t22 32q22 43 46 81q10 -6 23 -6h213q19 0 32.5 13.5t13.5 32t-13.5 32t-32.5 13.5h-177q91 113 214 165q75 31 84 61q8 27 -4.5 39.5t-57.5 5.5z" />
    <glyph glyph-name="uniE63E" unicode="&#xe63e;" 
d="M799 735h-574q-33 0 -62.5 -13t-51 -34.5t-34.5 -51t-13 -62.5v-572q0 -67 47 -114t114 -47h574q66 0 113 47t47 114v572q0 66 -47 113.5t-113 47.5z" />
    <glyph glyph-name="uniE63F" unicode="&#xe63f;" 
d="M782 237q-8 0 -15 3t-12.5 8.5t-8.5 12.5t-3 15q0 17 11.5 28.5t27.5 11.5t27.5 -11.5t11.5 -28t-11.5 -28t-27.5 -11.5zM582 237q-16 0 -27.5 11.5t-11.5 28t11.5 28t27.5 11.5q11 0 20 -5.5t14 -14.5t5 -19.5t-5 -19.5t-14 -14.5t-20 -5.5zM960 181q0 63 -34 116.5
t-92.5 86.5t-129.5 37q-6 1 -11 1h-9q-57 0 -108 -19t-88 -51.5t-59 -77t-22 -93.5q0 -29 8 -58q9 -31 27 -59t43.5 -50.5t56 -39t67 -25.5t75.5 -9q65 0 123 25l62 -42l1 -1q2 -1 4.5 -1.5t4.5 0t3.5 4t1.5 9.5l-18 66q44 34 69 81t25 100zM260 452q-16 0 -27.5 11.5
t-11.5 27.5q0 8 3 15.5t8.5 12.5t12.5 8t15 3q6 0 12 -2t11 -5.5t8.5 -8t5.5 -11t2 -12.5q0 -16 -11.5 -27.5t-27.5 -11.5zM505 530q16 0 27 -11.5t11 -27.5q0 -11 -5 -20t-14 -14t-19 -5q-17 0 -28 11.5t-11 27.5q0 11 5 20t14 14t20 5zM684 442q6 0 17 -1
q-17 102 -107 170t-209 68q-87 0 -161 -37t-117 -101.5t-43 -139.5q0 -43 14.5 -82.5t40 -72.5t60.5 -59l-24 -89q0 -1 -0.5 -3t-0.5 -7t2.5 -6.5t7 -3t14.5 2.5l88 61q57 -20 119 -20h5h5q-8 29 -8 59q0 110 90 187q86 74 207 74z" />
    <glyph glyph-name="uniE640" unicode="&#xe640;" 
d="M799 735h-574q-33 0 -62.5 -13t-51 -34.5t-34.5 -51t-13 -62.5v-572q0 -67 47 -114t114 -47h574q66 0 113 47t47 114v572q0 66 -47 113.5t-113 47.5zM448 79l-1 -1l-215 216l76 76l140 -140l268 268l76 -76z" />
    <glyph glyph-name="uniE641" unicode="&#xe641;" 
d="M507 457h-5q-66 0 -112.5 -46.5t-46.5 -113.5v-5v-173h173h5q66 0 113 47t47 113v5v173h-174zM630 391q-3 -9 -14.5 -16.5t-27.5 -13.5q-31 -13 -57 -33t-50 -50h89q6 0 11 -3t8.5 -8.5t3.5 -11.5q0 -10 -7 -16.5t-16 -6.5h-108q-3 0 -6 0.5t-6 2.5q-11 -19 -23 -41
q-3 -7 -10.5 -16t-12.5 -9q-14 0 -21.5 5.5t-6.5 13t1 13.5v1q1 3 3 8q15 36 36 68l-1 6v77q0 6 2.5 11t7.5 8t11 3h1q6 0 11 -3t8 -8t3 -11v-31q28 28 62 48.5t49 26t27 9.5h2q23 3 29 -3t2 -20zM512 736q-46 0 -90.5 -9t-84 -26t-76 -41.5t-66.5 -54.5t-54.5 -66.5
t-41.5 -76t-26 -84t-9 -90.5q0 -91 35.5 -174t95.5 -143t143 -95.5t174 -35.5t174 35.5t143 95.5t95 143t35 174t-35 174t-95 143t-143 95.5t-174 35.5zM737 284v-5q0 -89 -63.5 -152.5t-152.5 -63.5h-5h-230v225v9q0 89 63.5 152.5t152.5 63.5h5h230v-229z" />
    <glyph glyph-name="uniE642" unicode="&#xe642;" 
d="M778 298q-1 2 -2 3.5t-2 2.5l-425 425q-3 3 -7.5 5t-8.5 2t-8 -2t-8 -5l-67 -67q-5 -5 -6.5 -10.5t0 -11.5t6.5 -10l16 -16l309 -310q7 -6 7 -15.5t-7 -16.5l-325 -325q-7 -7 -7 -16t7 -16l67 -67q7 -7 16 -7t16 7l16 16l341 341l68 67q1 1 1 2q9 11 3 24z" />
    <glyph glyph-name="uniE643" unicode="&#xe643;" 
d="M245 298q2 4 5 6l425 425q6 7 15.5 7t15.5 -7l68 -67q3 -4 5 -8t2 -8.5t-2 -8.5t-5 -7l-16 -16l-309 -310q-7 -6 -7 -15.5t7 -16.5l325 -325q4 -4 5.5 -10t0 -12t-5.5 -10l-68 -67q-6 -7 -15.5 -7t-15.5 7l-17 16l-341 341l-67 67q-1 1 -1 1.5t-1 0.5q-9 11 -3 24z" />
    <glyph glyph-name="uniE644" unicode="&#xe644;" 
d="M522 555q3 -2 6 -5l425 -424q3 -4 4.5 -8t1.5 -8.5t-1.5 -8.5t-4.5 -7l-68 -68q-4 -4 -10 -5.5t-11.5 0t-10.5 5.5l-16 16l-309 310q-7 6 -16.5 6t-15.5 -6l-326 -326q-6 -6 -15.5 -6t-15.5 6l-68 68q-6 6 -6 15.5t6 16.5l16 16l341 341l68 67l2 2q11 9 24 3z" />
    <glyph glyph-name="uniE645" unicode="&#xe645;" 
d="M502 38l-6 4l-425 425q-6 7 -6 16t6 16l68 67q6 7 15.5 7t15.5 -7l326 -325q6 -7 15.5 -7t16.5 7l325 325q7 7 16 7t16 -7l68 -67q6 -7 6 -16t-6 -16l-358 -357l-67 -68q-1 -1 -2 -1q-11 -9 -24 -3z" />
    <glyph glyph-name="uniE646" unicode="&#xe646;" 
d="M512 736q-61 0 -119 -16t-107 -45t-90.5 -70.5t-70 -90.5t-45 -107t-16.5 -118.5t16.5 -118.5t45 -107.5t70 -90.5t90.5 -70t107 -45t119 -16q91 0 174 35.5t143 95.5t95 142.5t35 173.5q0 41 -7 80.5t-20.5 76t-33 70t-44.5 62.5t-54 53.5t-62.5 44t-69.5 33.5t-75.5 21
t-80.5 7zM424 293q0 -4 -5 -4h-48q-5 0 -5 4v49q0 4 5 4h48q5 0 5 -4v-49zM746 479v-229h-1q0 -29 -20.5 -53.5t-54 -39.5t-72.5 -16h-134q-5 0 -8 3.5t-3 7.5v37q0 4 3 7.5t8 3.5h135q19 0 33.5 3t26 9t18 15.5t7.5 22.5v169q0 6 -4.5 10.5t-10.5 4.5h-245
q-15 0 -27.5 -2.5t-23.5 -6.5t-19 -10.5t-12.5 -15t-4.5 -19.5v-150v-19v8v-5v-6q0 -9 5 -16q2 -3 4 -4l16 -15l40 -39q5 -4 7 -9.5t2 -11.5t-2 -11.5t-7 -9.5q-9 -9 -22 -9t-22 9l-14 14h-1l-56 55l-3 3q-1 1 -1.5 3t-1.5 3.5t-1 3.5l-2 4v3v7v5v39v149h1q1 45 43.5 78.5
t101.5 34.5h311q4 0 7.5 -3.5t3.5 -7.5v-4zM483 293v49q0 4 5 4h48q5 0 5 -4v-49q0 -2 -1.5 -3t-3.5 -1h-48q-5 0 -5 4zM601 293v49q0 4 4 4h48q5 0 5 -4v-49q0 -2 -1.5 -3t-3.5 -1h-48q-2 0 -3 1t-1 3z" />
    <glyph glyph-name="uniE647" unicode="&#xe647;" 
d="M343 297q0 -2 -1 -4t-3 -3t-5 -1h-92q-8 1 -9 8v93q0 4 2.5 6t6.5 2h92q9 0 9 -8v-93zM959 653v-438q-2 -84 -85 -145.5t-197 -63.5h-257q-9 0 -15 6t-6 15v70q0 9 6 15t15 6h259q73 2 117 25.5t45 71.5v323q0 5 -1.5 9t-4 7.5t-6 6t-7.5 4t-9 1.5h-469q-74 0 -120 -26
t-47 -76h-1v-325v15v-9v-12q0 -15 10 -29l8 -9l30 -28v1l77 -76q18 -16 18 -40t-17.5 -40.5t-42 -16.5t-41.5 17l-29 27l-109 105q-16 16 -16 38v14v9v74v286h1q2 86 84 150.5t195 65.5h595q8 0 14 -6t6 -15v-7zM457 297v93q2 7 9 8h93q3 0 5.5 -2t2.5 -6v-93q0 -8 -8 -8
h-93q-4 0 -6.5 2.5t-2.5 5.5zM682 297v93q1 7 8 8h93q8 0 8 -8v-93q-1 -7 -8 -8h-93q-7 1 -8 8z" />
    <glyph glyph-name="uniE648" unicode="&#xe648;" 
d="M676 662v-4q-2 1 -4 1h-5v-11v-8v-8h-4v16v6v5l-10 -1l1 4h22zM712 632h-4q0 5 -1 14.5t-1 11.5q-2 -7 -5.5 -15.5t-3.5 -10.5h-3q0 2 -3 10.5t-4 11.5t-2 4v-4q0 -4 -1 -8v-6v-4v-4h-4q0 1 1 13q0 2 0.5 4t0.5 4t0.5 3.5t0.5 3.5v2h6q0 -3 3.5 -13t3.5 -12q0 2 4 12
t4 13h6v-7q0 -4 1 -10q1 -12 1 -13zM668 515l-235 136q-19 11 -45 11t-44 -11l-235 -136q-19 -10 -32 -33t-13 -44v-271q0 -14 6 -29t16.5 -28t22.5 -20l235 -136q18 -10 44 -10t45 10l235 136q9 5 17 14t14 19.5t9.5 22t3.5 21.5v271q0 21 -13 44t-31 33zM465 303
q0 -65 -46 -111t-110.5 -46t-110.5 46t-46 111v119q0 8 3 14.5t8 11.5t11.5 8t14.5 3t14.5 -3t11.5 -8t8 -11.5t3 -14.5v-119q0 -34 24 -58.5t58.5 -24.5t58.5 24.5t24 58.5v119q0 16 11 26.5t26 10.5t26 -10.5t11 -26.5v-119zM624 183q0 -10 -5 -18.5t-13.5 -13.5t-18.5 -5
q-15 0 -26 11t-11 26v239q0 16 11 26.5t26.5 10.5t26 -10.5t10.5 -26.5v-239zM765 303q0 -6 -4 -9.5t-9.5 -3.5t-9 3.5t-3.5 9.5q0 13 13 13q4 0 7 -2t4.5 -5t1.5 -6zM940 348h-40q-6 0 -10.5 -2.5t-7 -7t-2.5 -9.5v-68q0 -2 1 -3t3 -1h15q4 0 4 4v60q0 4 4 4h26q4 0 4 -4v1
v-61q0 -2 1 -3t2 -1h16q2 0 3 1t1 3v68q0 8 -6 13.5t-14 5.5zM854 348h-30q-14 0 -24.5 -10t-10.5 -24v-23q0 -6 2.5 -12t6.5 -10.5t9.5 -7.5t11.5 -4h35q3 0 3 4v16q-1 2 -3 3h-29q-5 0 -9 4t-4 9v19q0 4 2 7t5 4.5t6 1.5h29q3 0 3 4v16q-1 2 -3 3z" />
    <glyph glyph-name="uniE649" unicode="&#xe649;" 
d="M344 620q-25 0 -49.5 -4t-47 -11t-43 -16t-38.5 -21t-33.5 -26t-28 -30t-21 -32.5t-13.5 -34.5t-5 -37h-1v-450h613q114 2 197 62t85 143v457h-615zM249 431h331v-95h-331v95zM771 149h-522v94h522v-94z" />
    <glyph glyph-name="uniE64A" unicode="&#xe64a;" 
d="M866 229l-107 114q15 80 -7.5 159t-77.5 137q-13 13 -27 25t-28.5 21.5t-30.5 17.5t-32.5 14.5t-33.5 10.5t-35 6t-36 2q-32 0 -63 -7q-13 -3 -23.5 -12.5t-14.5 -22.5q-2 -7 -2.5 -14t1 -13.5t5 -12.5t8.5 -11l126 -133l-29 -114l-103 -29l-125 132q-15 16 -37 16
q-9 0 -17 -3.5t-15 -9t-11.5 -13t-6.5 -16.5q-15 -81 7 -160t78 -137q44 -47 101.5 -72.5t120.5 -25.5q38 0 74 10l250 -228q19 -19 45 -19q24 0 42 16t22 41v2v275q1 8 0 16t-5.5 18.5t-12.5 19.5zM800 -25q0 -7 -6.5 -10t-11.5 2l-215 196l-1 1l-14 14q-4 5 -11 3l-19 -7
q-8 -3 -17 -5t-18 -3.5t-18 -2.5t-18 -1q-94 0 -161 71q-48 50 -62 119q-2 8 5 11.5t13 -2.5l63 -66q7 -8 16.5 -12t20.5 -4q3 0 6.5 0.5t7.5 1.5l140 40q28 8 36 37l37 148q7 28 -12 48l-70 75q-4 4 -3.5 8.5t4.5 7.5t9 2q64 -15 112 -66q43 -46 59.5 -109t1.5 -126
q-7 -29 14 -50l99 -105q13 -14 13 -33v-183z" />
    <glyph glyph-name="uniE64B" unicode="&#xe64b;" 
d="M804 539q-10 4 -36 5t-57 2t-65 5t-70 16t-63 32q-170 148 -325 135q-20 -1 -38.5 -8.5t-31 -17t-22 -19t-13.5 -15.5l-4 -7q-16 -27 -7 -58l224 -719q8 -27 32.5 -40t50 -4t38 34.5t3.5 53.5l-59 191q17 13 39 19.5t39.5 7.5t40 -3t34.5 -7.5t31 -10t20 -6.5
q5 -2 32 -15q223 -104 305 -80q53 17 54 82q0 70 -15.5 146t-38.5 134.5t-49.5 99t-48.5 47.5zM500 253q-2 1 -15 4.5t-22 5.5t-25 5t-29.5 3t-29.5 -1.5t-30.5 -7t-26.5 -14.5l-115 372q85 9 259 -108q25 -14 67.5 -25t79 -16t72 -9.5t43.5 -6.5q36 -10 73.5 -92t37.5 -167
q0 -33 -32 -40t-80.5 7.5t-95 33t-87 37t-44.5 19.5z" />
    <glyph glyph-name="uniE64C" unicode="&#xe64c;" 
d="M861 554l-293 169q-23 13 -55.5 13t-55.5 -13l-293 -169q-23 -14 -39.5 -42t-16.5 -55v-338q0 -26 16.5 -54.5t39.5 -41.5l293 -169q23 -13 55.5 -13t55.5 13l293 169q15 9 27.5 25t20 35t7.5 36v338q0 27 -16 55t-39 42zM608 288q0 -81 -57 -138t-138 -57
q-32 0 -61.5 10t-53.5 28t-42.5 42t-28 53.5t-9.5 61.5v149q0 19 13.5 33t32.5 14q12 0 23 -6.5t17 -17t6 -23.5v-149q0 -17 5.5 -32.5t15 -28t22 -22t28 -15t32.5 -5.5q43 0 73 30.5t30 72.5v149q0 10 3.5 18.5t9.5 14.5t15 10t18 4q19 0 32.5 -14t13.5 -33v-149zM807 139
q0 -9 -3.5 -17.5t-10 -15t-15 -10t-17.5 -3.5q-19 0 -33 13.5t-14 32.5v298q0 10 4 18.5t10 14.5t14.5 10t18.5 4q19 0 32.5 -14t13.5 -33v-298z" />
    <glyph glyph-name="uniE64D" unicode="&#xe64d;" 
d="M513 735q-91 0 -168.5 -44.5t-122.5 -122t-45 -168.5q0 -76 48 -145.5t120 -120.5v-34q0 -10 5 -18t13 -13t18 -5h130h2h2h131q15 0 25.5 10.5t10.5 25.5v35q72 51 119.5 120t47.5 145q0 91 -45 168.5t-122.5 122t-168.5 44.5zM547 177h-68q-24 7 -50 21.5t-52 36
t-46.5 46.5t-33.5 56.5t-13 62.5q0 95 67 162t162 67q62 0 115 -30.5t83.5 -83.5t30.5 -115q0 -90 -96 -167q-50 -40 -99 -56zM613 14h-2h-195h-1h-1q-11 -1 -15 -11t2 -19l87 -122q2 -2 3 -4t1 -4q1 -7 7 -12.5t14 -5.5t14 5.5t7 12.5q1 4 3 8l89 122q6 9 2 19t-15 11z" />
    <glyph glyph-name="uniE64E" unicode="&#xe64e;" 
d="M186 231q-21 -49 -24 -89.5t14 -49.5q11 -6 28 6t34 37q13 -54 62 -95q-25 -10 -39.5 -24t-14.5 -31q0 -18 17.5 -33.5t47 -24.5t65.5 -9q32 0 59.5 7.5t45.5 20.5t23 28h16q5 -15 23 -28t46 -20.5t59 -7.5q27 0 51 5.5t41.5 14.5t28 21t10.5 26q0 35 -55 55q49 41 62 95
q12 -16 23 -27.5t21.5 -15.5t17.5 0q17 8 14 49t-24 90q-6 15 -13.5 28.5t-15 25t-15.5 20t-15.5 14.5t-14.5 9q1 4 1 9q0 30 -15 53v4q0 13 -6 25q-4 103 -67 170.5t-165 67.5t-165 -67.5t-67 -170.5q-6 -12 -6 -25v-2v-2q-15 -23 -15 -53q0 -5 1 -9q-11 -4 -24 -17.5
t-26 -34t-24 -45.5z" />
    <glyph glyph-name="uniE64F" unicode="&#xe64f;" 
d="M504 682v-1h-8q-77 0 -146.5 -29.5t-120 -80t-80.5 -120.5t-30 -146v-16v-394h401v1h8q102 0 189 50.5t137.5 137.5t50.5 189v8v401h-401zM780 500q-9 -32 -89 -66q-32 -13 -61.5 -29.5t-58 -38t-56 -48.5t-53.5 -60h189q21 0 35 -14t14 -35q0 -13 -6.5 -24.5t-17.5 -18
t-25 -6.5h-228q-13 0 -25 7q-25 -40 -49 -87q-2 -5 -6 -11t-9.5 -13.5t-11 -13.5t-11.5 -10.5t-11 -4.5q-24 0 -38.5 7t-17.5 17.5t-4 22.5t1 20q0 2 1 3q1 6 6 17q31 78 76 144q-2 7 -2 15v163q0 19 13.5 32.5t32.5 13.5h1q19 0 33 -13.5t14 -32.5v-66q45 46 96 82
t94.5 55.5t64.5 27.5t38 12q1 0 2.5 0.5t2.5 0.5q49 7 62 -6.5t4 -41.5z" />
    <glyph glyph-name="uniE650" unicode="&#xe650;" 
d="M512 736q-91 0 -174 -35.5t-143 -95.5t-95.5 -143t-35.5 -174t35.5 -174t95.5 -143t143 -95.5t174 -35.5q73 0 141.5 22.5t123.5 64t96.5 96.5t64 123.5t22.5 141.5q0 91 -35.5 174t-95.5 143t-143 95.5t-174 35.5zM512 -70q-97 0 -180 48t-130.5 130.5t-47.5 179.5
t47.5 179.5t130.5 130.5t180 48t179.5 -48t130.5 -130.5t48 -179.5t-48 -179.5t-130.5 -130.5t-179.5 -48z" />
    <glyph glyph-name="uniE651" unicode="&#xe651;" 
d="M512 736q-91 0 -174 -35.5t-143 -95.5t-95.5 -143t-35.5 -174q0 -73 22.5 -141t64 -123.5t96.5 -96.5t123.5 -64t141.5 -23q91 0 174 35.5t143 95.5t95.5 143t35.5 174q0 186 -131.5 317t-316.5 131zM512 -70q-98 0 -180.5 48t-130 130.5t-47.5 179.5q0 59 18 113.5
t51 98.5t77 77t98.5 51t113.5 18q97 0 179.5 -47.5t130.5 -130.5t48 -180q0 -148 -105 -253t-253 -105zM512 511q-67 0 -122.5 -36.5t-81.5 -95.5h-27l80 -94l80 94h-26q19 19 44 30.5t53 11.5q55 0 93.5 -39t38.5 -94q0 -36 -17.5 -66.5t-48 -48t-66.5 -17.5
q-43 0 -77 24.5t-48 63.5h-94q15 -77 76.5 -128t142.5 -51q92 0 157.5 65.5t65.5 157.5q0 100 -75 167q-64 56 -148 56z" />
    <glyph glyph-name="uniE652" unicode="&#xe652;" 
d="M512 736q-91 0 -174 -35.5t-143 -95.5t-95.5 -143t-35.5 -174t35.5 -174t95.5 -143t143 -95t174 -35t174 35t143 95t95 143t35 174t-35 174t-95 143t-143 95.5t-174 35.5zM512 -70q-98 0 -180.5 48t-130 130.5t-47.5 180t47.5 180t130 130t180 47.5t180 -47.5t130.5 -130
t48 -180.5q0 -29 -4.5 -58t-13.5 -55t-22 -51t-29 -47t-36 -42t-42 -36t-47 -29t-51 -22t-55 -13.5t-58 -4.5zM337 421h350v-87h-350v87zM337 246h350v-87h-350v87z" />
    <glyph glyph-name="uniE653" unicode="&#xe653;" 
d="M512 736q-61 0 -119 -16t-107 -44.5t-90.5 -70t-70.5 -90.5t-45 -107t-16 -119q0 -73 22.5 -141.5t64 -123.5t96.5 -96.5t123.5 -64t141.5 -22.5q91 0 174 35.5t143 95.5t95.5 143t35.5 174t-35.5 174t-95.5 143t-143 95t-174 35zM512 -70q-97 0 -179.5 48t-130.5 130.5
t-48 180t48 180t130.5 130.5t179.5 48t179.5 -48t130.5 -130.5t48 -180t-48 -180t-130.5 -130.5t-179.5 -48zM424 520q0 -24 11.5 -44.5t32 -32.5t44.5 -12t44 12t32 32.5t12 44.5q0 23 -12 43.5t-32 32.5t-44 12q-18 0 -34.5 -7t-28 -19t-18.5 -28.5t-7 -33.5zM661 387h-20
v0h-263h-20q-3 0 -6 -1t-5.5 -2.5t-4.5 -4t-3 -6t-1 -6.5v-180q0 -8 6 -14t14 -6h20v-28q0 -4 2 -7.5t5.5 -5.5t7.5 -2h32v-114q0 -5 2 -9t6 -6t9 -2h53q14 0 17 13q2 -13 15 -13h57q6 0 10.5 4.5t4.5 10.5v116h27q6 0 10.5 4.5t4.5 10.5v28h20q5 0 9.5 3t7.5 7.5t3 9.5v180
q0 9 -6 14.5t-14 5.5z" />
    <glyph glyph-name="uniE654" unicode="&#xe654;" 
d="M895 38q-3 77 -70.5 152t-148.5 105q36 32 56 75t20 92v86q0 60 -30 111t-81 81t-111 30h-37q-92 0 -157 -65t-65 -157v-86q0 -49 20 -92t56 -75q-52 -19 -101 -58.5t-82.5 -93.5t-35.5 -105q-2 -37 6 -75q7 -31 37.5 -71.5t65.5 -67.5q6 -6 14 -9.5t16.5 -5.5t17.5 -2
h190h3h1h65h1h2h191q13 0 25.5 4.5t22.5 12.5q23 17 44 41t37.5 50.5t21.5 47.5q8 38 6 75zM365 535q0 66 35 104t98 38h27q63 0 97.5 -39t34.5 -105v-60q0 -66 -34 -109.5t-95 -44.5h-9h-8h-4h-3h-9q-31 0 -55.5 13t-40.5 34t-25 49t-9 60v60zM797 -16l-9 -17
q-16 -23 -47 -47q-4 -3 -9 -5q-1 -1 -2.5 -2t-2.5 -2q-3 -2 -6.5 -3.5t-7 -2t-7.5 -1t-7 -0.5h-159h-1h-1h-53h-1h-1h-159q-16 0 -28 7q-2 1 -6 4l-8 5q-8 6 -15 12.5t-12.5 11.5t-10 10.5t-7 9.5t-5 7.5t-3.5 6t-2 4.5t-1 3v1q-6 26 -5 52q1 30 19 62t44.5 58t60 45
t65.5 24h1q1 0 1 1h1q37 6 72 8h1v0q1 0 2.5 0.5t2.5 0.5v-1h6h9h2h2h1h1h1h4h9h6v1q1 0 2 -1h3v0h1q35 -2 72 -8h1q0 -1 1 -1h1q66 -11 126 -71t63 -120q1 -26 -5 -52z" />
    <glyph glyph-name="uniE655" unicode="&#xe655;" 
d="M498 221h27q21 0 36 15t15 36v412q0 6 -1.5 11.5t-4 10.5t-6 9.5t-8 8t-9.5 6t-10.5 4t-11.5 1.5h-27q-5 0 -11 -1.5t-11 -4t-9 -6t-7.5 -8t-6 -9.5t-4 -10.5t-1.5 -11.5v-412q0 -21 15 -36t35 -15zM752 638q-16 10 -32 1t-16 -28v-68q0 -6 1.5 -12t3.5 -11.5t6 -10.5
t8 -9q37 -32 60 -64t36 -73.5t11 -90.5q-2 -48 -18 -93.5t-44 -82.5t-65 -65t-82 -44.5t-94 -19.5q-89 -4 -166.5 38t-122.5 117t-45 164q0 68 28 119t82 97q6 5 10 12t6.5 14.5t2.5 15.5v67q0 19 -16.5 28.5t-32.5 -0.5q-99 -61 -154.5 -152.5t-53.5 -208.5
q2 -116 60 -215.5t155.5 -159t213.5 -63.5q94 -4 180 30t148 94t99 144.5t37 177.5q0 77 -26 144t-71 118t-109 90z" />
    <glyph glyph-name="uniE656" unicode="&#xe656;" 
d="M939 736h-596q-8 0 -20 -1h-1t-2 -1h-2h-5q-2 -1 -4.5 -1t-4.5 -1h-1h-3q-2 -1 -3.5 -1t-3 -0.5t-3.5 -0.5h-1q-1 -1 -2 -1q-5 -1 -11 -3h-2q-6 -2 -12.5 -4.5t-12.5 -4.5t-13 -5l-1 -1l-10 -5q-1 0 -2 -0.5t-1 -1.5q-5 -2 -9 -4l-2 -2h-1q-2 -1 -4 -2.5t-4 -2.5
t-3.5 -2.5t-3.5 -2.5t-4 -2.5t-3 -2.5l-8 -6l-3 -2l-8 -6q0 -1 -1 -1l-1 -1q-4 -4 -9 -8v-1h-1q-3 -3 -6.5 -7t-7 -7.5t-7 -7.5t-6.5 -8l-1 -1q-4 -4 -7 -9v-2h-1q-4 -5 -7 -9q0 -1 -1 -2v-1q-3 -4 -6 -9q-1 0 -1 -2q-3 -5 -6 -9l-1 -3q-1 -2 -2.5 -4.5t-2.5 -4.5
q0 -1 -0.5 -1.5t-0.5 -1.5l-5 -10v-1l-1 -1q-5 -12 -9 -25t-7 -27q-2 -6 -3 -13v-2q-1 -3 -1 -5.5t-1 -5.5v-2v-1v-2q-1 -3 -1 -4v-1v-1q-1 -10 -1 -18v-609h448v112h-316q-3 0 -5.5 1t-4.5 2t-4 3t-3.5 4.5t-2 5t-0.5 4.5v457v20q0 8 1 16.5t3 16.5v1q0 1 0.5 2.5t1 2.5
t0.5 3q1 4 2 7v1q2 4 3 7v1q1 4 3 7v1q2 3 3 7q1 0 1 1l3 6v1l4 7v0q2 3 4 7h1q2 4 4 7q9 12 19 22.5t21 18.5h1q3 3 6 5h1l6 4l1 1q3 1 6 3l1 1q3 1 6 3h1q2 1 3.5 1.5t2.5 1.5h1l1 1l6 2h2l6 2l1 1l7 1l1 1q3 0 7 1h1l7 1l1 1h1h7h1q2 0 4 0.5t4 0.5h484q8 0 14 -6t6 -15
v-261h112v393h-20zM478 357l-17 31q-15 26 -35.5 26t-34.5 -26l-175 -311q-6 -10 -0.5 -20.5t16.5 -10.5h124l186 200q5 5 2 11zM752 421.5q26 12.5 35 39t-3.5 52t-39.5 35t-52.5 -3t-35 -39.5t3 -52t39.5 -34.5t53 3zM485 46h140v-205h104q37 0 63 26t26 63v45v71h140
l-236 298z" />
    <glyph glyph-name="uniE657" unicode="&#xe657;" 
d="M485 46h140v-206h104q37 0 63 26.5t26 63.5v116h140l-236 298zM939 736h-576h-20q-4 0 -9 -0.5t-11 -0.5h-1q-1 0 -3 -1h-2h-2h-2q-2 -1 -4.5 -1t-4.5 -1h-1h-3q-4 -1 -10 -2h-1q-1 -1 -2 -1q-2 0 -3.5 -0.5t-3.5 -1t-4 -1.5h-1h-1q-19 -6 -38 -14l-1 -1l-10 -5
q-1 0 -2 -1q-1 0 -1 -1q-3 -1 -5 -2l-4 -2l-2 -2h-1q-2 -1 -4 -2.5t-4 -2.5l-4 -2l-2 -2q-1 -1 -2.5 -2t-2.5 -2l-3 -2q-2 -1 -4 -2.5t-4 -3.5h-1l-2 -2l-8 -6q0 -1 -1 -1l-1 -1q-4 -4 -9 -8v-1h-1q-14 -14 -27 -30l-1 -1q-4 -4 -7 -9l-1 -1l-1 -1q-3 -5 -6 -9q0 -1 -1 -2
v-1q-3 -4 -6 -9l-2 -2q-2 -5 -5 -9q-1 -2 -1 -3q-3 -4 -5 -10v-1q-1 0 -1 -1l-3 -5l-2 -5q0 -1 -0.5 -1t-0.5 -1q-3 -8 -6 -16.5t-5.5 -17.5t-4.5 -18q-1 -2 -1.5 -4.5t-1 -4.5t-0.5 -4v-2q-1 -6 -2 -11v-2v-1l-1 -6v-1v-1q0 -5 -0.5 -9.5t-0.5 -8.5v-609h448v112h-316
q-2 0 -4.5 0.5t-4.5 1.5t-3.5 2.5t-3 3.5t-2.5 4t-1.5 4t-0.5 4v477q0 8 1 16.5t3 16.5v1q1 3 2 7v1q1 4 2 7v1l3 7v1q1 4 3 7v1q2 3 3 7l1 1q1 3 3 6v1q1 2 2 3.5t2 3.5v0q2 3 4 7h1q0 1 1 2.5t1.5 2.5t1.5 2q9 12 19 22.5t21 18.5h1q3 3 6 5h1l5 4h1l1 1l5 3q1 0 2 0.5
t2.5 1.5t3.5 2h2l2 2q2 0 3 1h2q1 1 2.5 1.5t3.5 1.5h2q2 1 5 2h1l1 1q3 1 6 1h1l1 1q2 0 3.5 0.5t3.5 0.5h1q2 1 4 1h3h1l1 1h7h1q4 1 8 1v-1h484q8 0 14 -5.5t6 -14.5v-261h112v393h-20zM287 511h335v-111h-335v111zM287 177h108l88 111h-196v-111z" />
    <glyph glyph-name="uniE658" unicode="&#xe658;" 
d="M261 274h503v-111h-503v111zM260 498h503v-111h-503v111zM344 722q-113 -2 -195 -76.5t-84 -173.5h-1v-531h380l41 -71q9 -15 26.5 -15t26.5 15l41 71h98q113 2 196.5 73t85.5 168v540h-615zM679 50h-116l-32 -54q-6 -11 -19 -11t-20 11l-31 54h-285v420h1q0 17 4.5 33
t13 30t19.5 26t25.5 21.5t30.5 16t35 10t39 3.5h503v-428q-2 -57 -50.5 -93.5t-117.5 -38.5z" />
    <glyph glyph-name="uniE659" unicode="&#xe659;" 
d="M959 624h-631q-108 -1 -185 -61.5t-79 -146.5v-462l632 1q71 0 131 28t95.5 75.5t36.5 103.5v462zM848 516v-14l-304 -214q-15 -5 -30 0l-292 189q44 39 106 39h520zM696 65h-520l1 318q0 4 0.5 9t1.5 10l317 -214q3 -1 9 -2.5t24 -2.5t32 4l287 210v-233
q-1 -50 -41.5 -74.5t-110.5 -24.5z" />
    <glyph glyph-name="uniE65A" unicode="&#xe65a;" 
d="M801 378h-42v168q0 39 -15 74t-40.5 60.5t-60.5 40t-73 14.5h-116q-78 0 -133.5 -55t-55.5 -134v-168h-43q-38 0 -65 -27t-27 -65v-355q0 -24 12.5 -45.5t33.5 -33.5t46 -12h579q38 0 64.5 27t26.5 64v355q0 19 -7 36t-19.5 29t-29.5 19.5t-35 7.5zM355 546q0 28 12.5 51
t35.5 36.5t51 13.5h116q14 0 27 -3.5t23.5 -10t19.5 -15.5t15.5 -20t9.5 -24.5t3 -27.5v-168h-313v168zM803 -53q0 -5 -2.5 -9t-6.5 -6t-8 -2h-549q-7 0 -12 4.5t-5 12.5v324q0 4 1.5 7t3.5 5t5.5 3.5t6.5 1.5h549q7 0 12 -5t5 -12v-324z" />
    <glyph glyph-name="uniE65B" unicode="&#xe65b;" 
d="M695 -224v1024h-307v-1q-5 1 -9 1q-59 -26 -147.5 -130.5t-154.5 -213.5t-75 -158q-1 -3 -1 -6v-4v0v-2v-2l1 -7q12 -65 115 -219q121 -181 219 -255q24 -18 43 -27h9h307zM353 202q-44 0 -74.5 31t-30.5 74q0 29 14 53t38 38t53 14q21 0 40.5 -8t33.5 -22.5t22.5 -33.5
t8.5 -41q0 -28 -14 -52.5t-38.5 -38.5t-52.5 -14z" />
    <glyph glyph-name="uniE65C" unicode="&#xe65c;" 
d="M513 288q8 -3 16 0l159 112v7h-272q-33 0 -56 -20zM504 235l-167 112q-1 -5 -1 -10v-166h272q18 0 32 3t25 9t17 16t6 24v122l-150 -110q-10 -2 -17.5 -2t-12.5 1zM512 736q-46 0 -90.5 -9t-84 -26t-76 -41.5t-66.5 -54.5t-54.5 -66.5t-41.5 -76t-26 -84t-9 -90.5
q0 -91 35.5 -174t95.5 -143t143 -95t174 -35t174 35t143 95t95.5 143t35.5 174q0 73 -23 141.5t-64.5 123.5t-96.5 96.5t-123 64t-141 22.5zM746 222q-1 -30 -19.5 -54.5t-50 -39.5t-68.5 -15h-331v242q1 17 8 33.5t20 30t30 23.5t37.5 15.5t42.5 6.5h331v-242z" />
    <glyph glyph-name="uniE65D" unicode="&#xe65d;" 
d="M514 735q-91 0 -173.5 -35.5t-142.5 -95.5t-95.5 -142.5t-35.5 -173.5t35.5 -174t95.5 -143t142.5 -95t173.5 -35t174 35t143 95t95.5 143t35.5 174t-35.5 173.5t-95.5 142.5t-143 95.5t-174 35.5zM711 343l-155 -89q-6 -3 -11.5 -2.5t-10 5.5t-4.5 12v58q-9 2 -18 2h-27
q-33 0 -56.5 -23t-23.5 -56v-26v-3v-1v-3v-1q0 -1 1 -2v-1v-3q0 -1 1 -3v-1v-2h1v-1v-2l1 -1v-2l1 -1v-1q0 -1 1 -2v-1q1 -1 1 -2l1 -1v-1l1 -2v-1q2 -3 4 -5v-1l1 -2h1q1 -1 1 -2q3 -4 7 -8t9 -8t10 -6q10 -6 20 -8t10 -12v-21v-1v-18q0 -7 -7 -6h-3h-2h-1h-2h-1l-1 1h-2
h-2h-1q-1 0 -2 1h-1h-2h-1q-1 1 -2 1h-1v1h-2h-1h-2v1h-1h-2v1h-2h-1v1h-2h-1v1h-2l-1 1h-2v1q-2 0 -3 1q-1 0 -2 1h-1h-1q0 1 -1 1q-2 1 -3 2q-11 6 -21 14q-1 1 -1.5 1t-0.5 1h-1l-1 2h-1q0 1 -1 2h-1l-2 2v0l-2 2v1h-1l-1 1q-1 1 -1 2l-1 1q-1 0 -2 1v1l-1 1l-1 1
q-1 1 -1 2l-1 1l-1 1l-1 1q0 1 -1 1v1l-1 2q-1 0 -1 0.5t-1 1.5v1l-1 1v1q-1 0 -1 0.5v1.5h-1q0 1 -1 1v2q-1 0 -1 1t-1 1v2q-1 1 -1 1.5t-1 0.5v1q-1 1 -1 2t-0.5 1.5t-1 1.5t-0.5 1.5t-1 1.5v1v1l-1 2v1l-1 2v1l-1 2v1q0 1 -0.5 1.5t-0.5 1.5v2l-1 1v0v1q0 1 -1 2v1v2v0v1
v1v1q-1 1 -1 2v1v1v2v2l-1 1v1v2v1v1v2v0v1v3v41q0 53 38 91t91 38l45 1h1h7v60q0 10 9 15t17 0l155 -89q9 -5 9 -15t-9 -15z" />
    <glyph glyph-name="uniE65E" unicode="&#xe65e;" 
d="M298 698q-112 0 -188 -81q-69 -75 -69 -176q0 -63 28 -118q4 -8 13 -11t18 2q5 3 8.5 8t3.5 11t-2 11q-24 45 -24 97q0 87 62.5 149t150 62t149.5 -62t62 -149q0 -25 -5.5 -48.5t-16 -44.5t-25 -39.5t-33 -33t-39.5 -25t-44.5 -16t-48.5 -5.5t-48 6q-6 1 -11.5 -1
t-9.5 -6t-6 -11q-2 -9 3 -17t14 -10q28 -6 58 -6q70 0 129.5 34.5t94 93.5t34.5 129q0 106 -75.5 181.5t-182.5 75.5zM253 376q22 -16 49 -16q35 0 60 25t25 61q0 23 -11.5 42.5t-31 31t-42.5 11.5q-35 0 -60 -25t-25 -60q0 -18 7 -34q-32 -34 -58 -73q-50 -74 -80.5 -180.5
t-18.5 -237.5q1 -5 3 -9.5t5 -9t7 -7t8 -2.5h2q9 0 15.5 11t5.5 21q-20 219 89 383q10 14 17.5 25t16.5 23t17 20zM776 509q-28 -1 -55 12q-45 21 -61.5 68t4.5 91q14 30 41 48t57.5 20.5t61.5 -11.5q29 -14 47.5 -40.5t20.5 -57t-11 -61.5q-6 -13 -14 -24q-8 -10 2 -18
q4 -3 9.5 -2.5t8.5 4.5q5 6 9 13t8 16q13 26 14.5 55.5t-8 55.5t-29 48t-46.5 35q-54 26 -111 5.5t-83 -74.5q-17 -38 -14 -75.5t25 -70t58 -49.5q31 -15 67 -14q5 0 9 4t3 10q0 2 -0.5 4t-2 3.5t-3 2.5t-3.5 1.5t-4 0.5zM988 410q-116 43 -172 139q-12 19 -21 41q4 3 7.5 6
t6.5 7l6 8q4 9 4 19t-3 18.5t-9 15.5t-15 12q-19 8 -37.5 1.5t-27 -24.5t-2 -37t24.5 -28q4 -1 7 -2t6 -1.5t7 -0.5q4 -11 9.5 -23t12.5 -25q17 -27 38.5 -51.5t61 -52.5t87.5 -46q5 -2 9.5 0t6.5 6q0 1 0.5 1t0.5 1q1 3 0.5 6.5t-3 6t-5.5 3.5z" />
    <glyph glyph-name="uniE65F" unicode="&#xe65f;" 
d="M377 211q-16 -2 -27.5 -14t-11.5 -27q0 -5 2 -10t6 -9t9 -6.5t11 -3.5t13 0q17 2 29 13t12 26q0 14 -12 23.5t-31 7.5zM434 226q-6 -4 -7 -11t2 -12q7 -12 21 -2q14 11 6 23q-7 13 -22 2zM512 736q-73 0 -141 -23t-123.5 -64.5t-97 -96.5t-64 -123t-22.5 -141
q0 -92 35.5 -174.5t95.5 -142.5t143 -95.5t174 -35.5t174 35.5t143 95.5t95.5 142.5t35.5 174t-35.5 174.5t-95.5 143t-143 95.5t-174 35.5zM757 175q-23 -50 -80.5 -86t-124 -50.5t-128.5 -9.5q-38 3 -71.5 9t-70.5 20t-64 33.5t-47 51.5t-24 72q-1 7 -0.5 19.5t13.5 50.5
t40 74q3 5 9.5 13.5t27.5 31.5t42 42.5t51.5 39.5t59.5 30t50.5 10.5t33.5 -5.5t19 -18t9 -22.5t2 -23.5q-1 -4 -2.5 -11.5t-2 -10.5t-1 -7.5t1 -6t4.5 -2.5t8.5 0t13.5 3q5 2 12 5t26.5 9t36.5 8t36.5 -1.5t30.5 -14.5q7 -7 11 -15t5 -15.5t0.5 -15t-2.5 -13.5l-4 -11
q-1 -4 -3 -7l-1 -3q-1 0 -1.5 -1t-1.5 -4t0 -5.5t5 -5.5t12 -4q9 -2 19 -6.5t23 -12.5t22.5 -20.5t15.5 -28t3.5 -38t-14.5 -47.5zM658 465q-8 0 -13.5 6t-5.5 14t5.5 14t13.5 6q3 0 7.5 0.5t17 0.5t23.5 -2.5t24 -10t21.5 -19t13.5 -32t2 -47.5l-1 -2q0 -3 -2 -6.5
t-4.5 -5.5t-5.5 -3.5t-7 -1.5q-5 0 -10 3t-7.5 7.5t-2.5 9.5l1 3q0 3 0.5 8t0.5 11.5t-1.5 13t-4.5 13t-8 11.5t-12.5 8.5t-18.5 3.5t-26 -3zM866 373q-1 -17 -4 -25t-5.5 -9t-9 1t-8.5 2q-5 0 -9.5 1t-8 3t-6 4.5t-4 6.5t-1.5 9q0 4 0.5 8t1.5 7t1.5 5t1.5 4l1 1
q13 45 -9 94q-15 26 -39.5 43t-44.5 21.5t-38 7t-21 -1.5l-6 -2l-8 -2q-3 -1 -5.5 -1.5t-4.5 -0.5l-2 -1q-12 0 -20 8.5t-8 20.5q0 22 21 27v1h3q2 0 10.5 2.5t17.5 4.5t20.5 4t25 1.5t25.5 -3.5q30 -7 59 -25t53.5 -48.5t30.5 -72t-10 -95.5v0zM433 352q-90 -4 -153 -47
t-63 -103t63 -99t153 -35q89 4 153 52t64 108q0 59 -62.5 93.5t-154.5 30.5zM515 151q-29 -38 -77 -48.5t-103 15.5q-15 9 -23 22t-9 23v9q0 3 -0.5 7t0.5 16t4 23t10 25t18 25t30.5 19.5t43.5 11.5q43 5 72.5 -10.5t40 -40.5t9 -52t-15.5 -45z" />
    <glyph glyph-name="uniE660" unicode="&#xe660;" 
d="M511 740q-61 0 -118.5 -16t-106.5 -44.5t-90 -70t-69.5 -91t-44.5 -107.5t-16 -119q0 -46 9 -90t25.5 -84t41 -76.5t54.5 -66.5t66 -54.5t75.5 -41.5t83.5 -26t90 -9q90 0 172.5 35.5t142 95.5t94.5 143t35 174q0 73 -22.5 141.5t-63.5 123.5t-95.5 96.5t-122.5 64
t-140 22.5zM232 13q1 -4 -1 -7.5t-5.5 -5t-7.5 -1.5h-1q-15 0 -16 11q-14 161 67 283q16 24 40 49q-5 11 -5 23q0 16 8 29.5t21.5 21.5t29.5 8q9 0 18 -3t16.5 -8.5t12.5 -13t8 -16t3 -18.5q0 -25 -17 -42t-41 -17q-18 0 -34 10q-6 -7 -11 -12.5t-11.5 -13.5t-11.5 -16
q-75 -113 -62 -261zM359 184q-20 0 -39 4q-5 1 -8 4t-4 7t0 8q1 6 6.5 9.5t12.5 2.5q8 -2 16 -3t16 -1q40 0 73.5 19.5t53 53.5t19.5 73q0 30 -12 57t-31 46.5t-46 31.5t-57 12q-60 0 -102.5 -43t-42.5 -104q0 -35 16 -66q3 -6 1 -12.5t-8 -8.5q-14 -8 -21 6q-19 38 -19 81
q0 74 51.5 126t124.5 52t125 -52t52 -126q0 -36 -14 -69t-37.5 -56.5t-56.5 -37.5t-69 -14zM688 390q-12 0 -24 2.5t-22 7.5q-38 18 -51.5 57.5t3.5 77.5q12 25 34.5 40t48 17t51.5 -9q37 -18 51 -57.5t-4 -77.5q-6 -11 -12 -19q-5 -7 -12 -2q-3 3 -3.5 6.5t1.5 6.5
q6 7 10 16q9 21 7.5 42.5t-14 40t-32.5 27.5q-21 10 -42 8.5t-39.5 -14.5t-28.5 -33q-14 -31 -2.5 -63.5t41.5 -46.5q9 -5 18.5 -7t19.5 -1q9 0 9 -9q1 -9 -8 -10zM826 323q-85 32 -128 104q-9 16 -15 33q-7 0 -13 3q-9 4 -14 11.5t-5.5 16t3.5 17.5q6 12 18.5 17t25.5 -1
q8 -4 13 -11.5t5.5 -16t-2.5 -17.5q-5 -9 -14 -14q3 -7 6.5 -14.5t7.5 -14.5q39 -66 119 -96q8 -3 5 -11v-1q-4 -7 -12 -5z" />
    <glyph glyph-name="uniE661" unicode="&#xe661;" 
d="M388 363h248v-100h-248v100zM512 736q-122 0 -225 -60t-163 -163t-60 -225t60 -225t163 -163t225 -60t225 60t163 163t60 225t-60 225t-163 163t-225 60zM313 512h398v-50h-398v50zM686 412v-199h-348v199h348zM736 64h-448v50h122q-6 12 -13.5 25t-15.5 27t-18 29l47 18
q1 -2 6 -9t6 -9t5.5 -9t6 -10t5 -9.5t5.5 -11.5t5 -12t5.5 -14t5.5 -15h88q12 17 23.5 42t23.5 57l51 -19q-16 -35 -43 -80h133v-50z" />
    <glyph glyph-name="uniE662" unicode="&#xe662;" 
d="M73 -152q8 -8 19.5 -8t19.5 9l400 400l400 -400q3 -3 6 -5t6.5 -3t7.5 -1q5 0 10.5 2t9.5 6q8 9 8 20.5t-8 19.5l-400 400l400 400q8 8 8 19.5t-8 20.5q-4 3 -8 5t-8 2.5t-8.5 0t-8.5 -2.5t-7 -6l-400 -400l-400 400q-8 9 -19.5 9t-20 -8.5t-8.5 -20t9 -19.5l399 -400
l-399 -400q-9 -8 -9 -19.5t9 -20.5z" />
    <glyph glyph-name="uniE663" unicode="&#xe663;" 
d="M455 383h112v-111h-112v111zM455 215h112v-166h-112v166zM959 134v4v3l-1 4q-8 44 -30 70l-211 251l-182 226q-9 12 -23 11q-7 0 -13 -2.5t-11 -8.5l-181 -226l-212 -251q-22 -26 -29 -70l-1 -4t-1 -7q-1 -34 8 -74q12 -58 84 -131q24 -24 56 -37.5t66 -13.5h193h1v0h79
h2h193q71 0 121 51q72 73 85 131q8 40 7 74zM856 86q-1 -3 -2 -7.5t-6 -15t-11.5 -21t-19 -24.5t-28.5 -26l-4 -2q-2 -1 -3 -2q-3 -2 -5 -3q-2 -2 -4 -3q-15 -9 -33 -9h-194l-2 1h-1v-1h-1q-1 0 -1 1v-1h-58v1q-1 0 -1 -1h-2v1h-1q-1 -1 -2 -1h-193h-1h-1v0q-18 1 -31 9
l-5 3q-1 1 -4 2v1q-2 1 -3.5 2t-3.5 2q-25 20 -42 43t-20.5 33.5t-4.5 17.5q-10 45 7 82q9 14 17.5 25.5t17.5 22.5l18 20q9 11 23.5 28t30.5 35l186 218l21 26q6 7 14.5 10t17 0t14.5 -10q264 -296 314 -375q4 -10 6.5 -22.5t3 -22.5t-0.5 -18.5t-1 -13.5z" />
    <glyph glyph-name="uniE664" unicode="&#xe664;" 
d="M857 554l-292 169q-23 14 -55.5 14t-55.5 -14l-293 -169q-23 -13 -39 -41t-16 -55v-337q0 -27 16 -55t39 -41l293 -169q23 -14 55.5 -14t55.5 14l292 169q23 13 39.5 41t16.5 55v337q0 27 -16.5 55t-39.5 41z" />
    <glyph glyph-name="uniE665" unicode="&#xe665;" 
d="M469 422q9 20 2 20l-5 -2q-3 -4 -7.5 -10.5t-22 -22.5t-38 -28t-55.5 -22t-74 -10q-31 0 -60 6q-13 45 -34 49q0 -16 2 -39q-32 12 -57.5 31.5t-35.5 32.5l-9 14l-6 5q-3 1 -3 -6q1 -3 2 -7q2 -13 12.5 -32t37 -46t62.5 -42q6 -87 14 -107q9 -23 24 -29t53 -6
q19 0 31.5 1t23.5 4t17 9.5t8 16.5q5 19 10 55t4 39v1q-2 8 -13 -2q-7 -6 -16 -24.5t-16 -36t-8 -19.5q-2 -1 -5.5 -3t-9 -3.5t-12.5 -2.5t-13.5 -1t-13 0.5t-12.5 2.5q-2 2 -4 5.5t-4 9.5t-3.5 11.5t-3.5 15t-3.5 15.5t-3.5 18l-3 18q23 -5 49 -5q30 0 56.5 6t44.5 14
t34.5 21.5t25.5 23t18.5 25t12 20.5t7.5 16zM531 310q-8 5 -18 7q-5 1 -10 1.5t-10 0.5q-10 0 -20 -2t-17.5 -6.5t-12.5 -10.5q-3 -4 -4 -7.5t-1 -8.5v-75q0 -9 5 -15q2 -3 5 -6t7 -5q8 -4 18 -6.5t20 -2.5h4q2 -6 6 -11t10 -5h28q2 0 3 1t1 3v16q0 2 -1 3t-3 1l-7 1l-2 1
q3 2 6 4.5t4 4.5l2 1q4 7 4 15v75q0 5 -1 8.5t-3.5 7t-5.5 6t-7 4.5zM515 209v-1q0 -1 -1 -3.5t-2 -4t-4.5 -3t-7.5 -2.5h-7q-9 0 -16 3q-3 2 -4.5 4.5t-1.5 6.5v75q0 8 6 11q4 2 8 3t8 1q9 0 16 -4q3 -1 4.5 -4t1.5 -7v-75zM578 318h33v-143h-33v143zM724 232l-50 86h-32
v-143h33v86h1l50 -86h31v143h-33v-86zM788 318h33v-143h-33v143zM927 318v-109q0 -7 -6 -10.5t-14.5 -3.5t-14.5 3q-2 1 -3 2t-1.5 2.5t-1 3.5t-0.5 3v109h-33v-111q0 -7 4 -13t11.5 -10.5t17.5 -6.5l20 -3q6 0 11 1l10 2q5 1 9 3l8 4q2 1 3.5 2.5t3 2.5t2.5 2.5t2 2.5
q5 6 5 13v111h-33z" />
    <glyph glyph-name="uniE666" unicode="&#xe666;" 
d="M944 320l-165 -142q-16 -16 -12 -39l38 -227q5 -27 -14 -41q-13 -10 -29 -10q-11 0 -22 6l-208 112q-10 5 -21 5t-20 -5l-200 -112q-12 -6 -25.5 -5t-24.5 9q-28 19 -24 41l48 232q2 11 -1.5 21.5t-11.5 17.5l-174 137q-21 21 -12 49q4 13 14.5 22t24.5 11l226 39
q11 2 19.5 8.5t13.5 16.5l104 219q13 27 43 27t43 -27l100 -219q11 -21 34 -25l230 -39q9 -2 16.5 -6t13.5 -11t8 -16q3 -9 2.5 -17.5t-4 -17t-10.5 -14.5z" />
    <glyph glyph-name="uniE667" unicode="&#xe667;" 
d="M514 -101l-379 363q-9 10 -17 20.5t-15 22.5q-14 22 -23 48q-15 42 -15 100q0 104 74 166t185 62q34 0 70.5 -16.5t63.5 -38.5t55 -51q15 16 31 30.5t35.5 29t38.5 24.5t40.5 16t42.5 6q54 0 101 -16t82.5 -44.5t56 -72t20.5 -95.5q0 -57 -15 -99q-10 -27 -24 -51
q-7 -10 -14 -19.5t-15 -18.5l-2 -2z" />
    <glyph glyph-name="uniE668" unicode="&#xe668;" 
d="M266 86h1q1 1 25.5 7t53 15.5t59 21.5t50 28t19.5 32q0 34 -55 174q-2 5 -1 9.5t4.5 8t8.5 3.5q40 5 88 5q182 0 249 -39q3 -2 5 -5t2 -6q1 -5 0 -9q0 -5 -2.5 -8.5t-7 -6.5t-10 -6t-11.5 -5t-14 -4q-8 -1 -28 -5t-32 -5.5t-30 -3t-29.5 1.5t-23.5 9t-18.5 18.5
t-8.5 30.5q-1 7 -6.5 11.5t-12.5 4.5h-41q-9 0 -15 -7.5t-3 -16.5q5 -20 9.5 -34.5t15 -37t22 -36.5t29 -23t38.5 -5q142 24 315 66h1q8 2 16 3q16 3 23.5 18t0.5 30q-31 65 -144.5 96.5t-284.5 31.5q-66 0 -123 -7q-12 -2 -17 9q-8 19 -15 36t-13 30q-5 12 -19 12h-36
q-11 0 -17.5 -9t-1.5 -20q12 -30 23 -57q2 -3 1.5 -6.5t-1.5 -6.5t-3.5 -5t-6.5 -3q-108 -30 -169 -95t-61 -170v-1q-1 -1 0 -7.5t2 -14.5t5.5 -18.5t11 -20t19.5 -19.5t30 -17q22 -8 44 0l1 1zM355 322q5 -10 8.5 -23t3.5 -30t-4.5 -32.5t-19.5 -29t-38 -20.5
q-27 -8 -45 -8.5t-26.5 3.5t-12 14.5t-3 20t3.5 24.5q0 1 1 2q23 81 99 115q6 3 12 0.5t9 -8.5z" />
    <glyph glyph-name="uniE669" unicode="&#xe669;" 
d="M955 290l-371 370q-4 4 -9.5 4t-9.5 -4l-63 -63q-4 -4 -4 -9.5t4 -9.5l216 -217q3 -3 4 -7t-0.5 -7.5t-5 -6t-7.5 -2.5h-587q-24 0 -41 -17t-17 -41v-1q0 -24 17 -41t41 -17h585q6 0 10 -4t4 -9.5t-4 -10.5l-307 -250q-11 -8 -1 -21l45 -63q8 -11 19 -2l487 403q4 5 2 13
t-7 13z" />
    <glyph glyph-name="uniE66A" unicode="&#xe66a;" 
d="M394 333v-38h-15q-12 0 -19.5 -2.5t-13.5 -8.5q-12 -12 -12 -29t12 -28l4 -4q2 -2 4.5 -3.5t5.5 -2.5q8 -3 21 -3h13v-37h-21q-28 0 -46 11q-23 14 -32 40q-5 13 -5 26q0 18 8 35q6 13 16 23q14 14 34 18q6 1 13 2t14 1h19zM451 333v-119h53v-37h-96v156h43zM588 336
q20 0 38 -9q25 -12 36 -37q6 -16 6 -36q0 -34 -22 -57t-56.5 -23t-57.5 22q-24 23 -24 58q0 22 10 41q11 21 33 32q8 4 17 6.5t20 2.5zM588 300q-18 0 -27 -13q-9 -12 -9 -32q0 -7 1.5 -13t3.5 -11t5 -10q9 -11 26 -11q19 0 28 14q8 12 8 30q0 23 -11 35q-9 11 -25 11z
M807 333v-156h-73q-21 0 -31 7q-10 6 -14.5 17t-4.5 28v104h43v-99v-7q0 -3 1 -5.5t2 -3.5q4 -4 15 -4h19v119h43zM825 333h52q33 0 53 -17q16 -13 24 -32q5 -14 5 -29q0 -30 -19 -52q-14 -15 -30 -21q-15 -5 -35 -5h-50v96h43v-59h8q3 0 6 0.5t5 1.5q7 2 13 7q7 6 11 14.5
t4 17.5t-4 18q-2 4 -5 7.5t-6 6.5q-6 4 -13 6q-4 1 -8.5 1.5t-10.5 0.5h-43v38zM265 398v-161q0 -27 -23 -49q-27 -25 -70 -25q-20 0 -38 7t-28 16q-26 23 -26 54v96h21v21h20v20h21v-137q0 -10 10.5 -16t20.5 -6q5 0 12 2.5t12.5 7.5t5.5 11v159h62zM81 356h13v-13h-13v13z
M101 376h14v-13h-14v13zM122 397h14v-13h-14v13zM103 395h11v-12h-11v12zM82 374h12v-11h-12v11zM64 373h10v-9h-10v9zM85 394h9v-9h-9v9zM105 414h9v-9h-9v9zM105 414h9v-9h-9v9zM65 393h7v-7h-7v7zM86 413h7v-7h-7v7zM66 412h5v-4h-5v4z" />
    <glyph glyph-name="uniE66B" unicode="&#xe66b;" 
d="M871 298h-210v438h-213q-52 -3 -69.5 -26.5t-17.5 -80.5v-331h-211q-23 0 -33 -19.5t5 -36.5l355 -389q9 -10 21.5 -13.5t24.5 0t21 13.5l355 389q7 8 8 18t-3 18.5t-13 14t-20 5.5z" />
    <glyph glyph-name="uniE66C" unicode="&#xe66c;" 
d="M768 736l191 -192l-703 -703l-191 191zM959 33l-191 -192l-704 703l192 191z" />
    <glyph glyph-name="uniE66D" unicode="&#xe66d;" 
d="M937 372l-25 26q-5 5 -12 4.5t-12 -5.5l-418 -417q-57 -57 -138.5 -66t-129.5 38l-17 16q-45 50 -30 137.5t73 145.5l262 262l92 91q55 56 110 64.5t90 -28.5l12 -13q25 -23 22 -55.5t-22 -64.5t-51 -64l-83 -85l-1 -1l-3 -3l-197 -197q-61 -61 -73 -71q-3 -4 -6 -7
q-16 -15 -34 -24t-32.5 -9.5t-24.5 8.5q-13 13 -5.5 39.5t31.5 49.5q5 5 10 9q14 15 40 39.5t30 29.5l198 197l2 2q6 6 6.5 14t-5.5 13l-17 18q-3 3 -6.5 4t-7 1t-7 -1.5t-5.5 -4.5l-225 -225q-58 -55 -84 -99t-23.5 -74t28.5 -55l1 -2q65 -67 179 34q26 23 44 45q3 3 7 6
l15 15h1l322 323l8 8q5 5 18 21t22.5 32.5t16.5 41t6 48.5t-14 52.5t-40 53.5q-48 48 -123 47t-132 -50q-2 -2 -4.5 -3.5t-5.5 -3.5l-4 -4l-6 -4l-4 -4l-4 -5l-5 -4l-391 -391q-44 -55 -62.5 -119t-5.5 -128.5t59 -110.5q76 -70 173 -68.5t186 77.5l430 431q5 5 5.5 12
t-4.5 11z" />
    <glyph glyph-name="uniE66E" unicode="&#xe66e;" 
d="M960 167v243h-326v326h-244v-326h-326v-244h326v-325h244v325z" />
    <glyph glyph-name="uniE66F" unicode="&#xe66f;" 
d="M684 423l-173 -173l-173 173l-49 -48l181 -181l33 -32v-1l8 -7l7 7v1l214 213z" />
    <glyph glyph-name="uniE670" unicode="&#xe670;" 
d="M304 407h596v120h-596v119l-239 -179l239 -179v119zM959 108l-238 180v-120h-597v-120l597 1v-120z" />
    <glyph glyph-name="uniE671" unicode="&#xe671;" 
d="M713 288l-382 448l-18 -17l372 -431h28zM713 288l-382 -447l-18 16l372 431h28z" />
    <glyph glyph-name="uniE672" unicode="&#xe672;" 
d="M313 288l382 448l18 -17l-372 -431h-28zM313 288l382 -447l18 16l-372 431h-28z" />
    <glyph glyph-name="uniE673" unicode="&#xe673;" 
d="M188 612v-648h648v648h-648zM691 110h-75l-214 282v-282h-71v359h74l214 -282v282h72v-359z" />
    <glyph glyph-name="uniE674" unicode="&#xe674;" 
d="M221 396l-72 108h-85v-404h87v281l70 -106l69 107v-282h86v404h-82zM422 100h86v404h-86v-404zM873 504v-404h86v404h-86zM741 504v-275q0 -10 -4.5 -19t-11 -15.5t-16 -10t-19.5 -3.5q-13 0 -24.5 6.5t-18.5 17.5t-7 24v275h-87v-275q0 -27 11.5 -51t30 -41.5t43.5 -28
t52 -10.5q55 0 96.5 38.5t41.5 92.5v275h-87z" />
    <glyph glyph-name="uniE675" unicode="&#xe675;" 
d="M691 327l58 74l-51 12l-73 -86h-223l-72 83l-58 -8l62 -75h-174q-18 0 -31 -13t-13 -32v-86v-50h44h80l14 -73l33 -203q2 -13 12 -21.5t23 -8.5h384q14 0 24 9t12 22l37 275h85q9 0 17 4.5t14 11.5t9.5 16t3.5 18v131h-217zM756 608h69q-9 46 -42 77.5t-82 43.5l-13 -54
q51 -16 68 -67zM737 462q-1 -2 -3 -5l50 -12q5 5 9 11l8 12q11 17 17 36q4 10 6.5 24.5t3.5 28.5h-64v-4v-4q0 -22 -12 -57q-6 -16 -15 -30zM627 684h11l12 52h-5q-19 0 -39 -7.5t-36.5 -18t-33.5 -25.5v-64q57 63 91 63zM220 469q3 -5 6.5 -10t7.5 -10l57 7q-4 6 -6 10
q-4 7 -7.5 14t-6.5 14q0 1 -1.5 5t-1.5 5l-2 6q-2 5 -2.5 7t-2 6t-2 6t-1 5.5t-1 6.5t-1 5.5t-0.5 5.5v5h-63q3 -32 10 -54q7 -18 17 -34zM390 683q35 0 95 -63v65q-57 51 -108 51q-8 0 -15 -0.5t-14 -1.5l11 -53q7 1 15 1.5t16 0.5zM310 666l-12 56q-26 -9 -47 -25t-35 -39
t-20 -50h68q6 20 18 34.5t28 23.5z" />
    <glyph glyph-name="uniE676" unicode="&#xe676;" 
d="M590 276q0 6 1.5 14.5t3 16.5t3.5 19q20 -10 65.5 0.5t78.5 38.5q26 21 39.5 48t13 49t-13 32.5t-38.5 11t-57.5 -11t-57.5 -33.5q-4 -3 -8 -7l-6 -6q-5 30 -44 75q19 -8 45.5 -8t61.5 13.5t62 38.5q29 25 44.5 57.5t15 59t-14.5 39.5q-5 4 -12 7t-15 4t-17.5 1.5t-20 -1
t-21.5 -4.5t-22.5 -7.5t-23 -10t-22.5 -13.5t-20 -16q-38 -34 -51.5 -77t-1.5 -69q-16 17 -45.5 45.5t-37.5 38.5q-24 28 -19.5 48.5t32.5 20.5q32 0 36 -37q0 -5 4 -8q15 -10 27.5 5t12.5 25q0 3 -0.5 7t-2.5 12t-7.5 14.5t-14 13t-23 10.5t-33.5 4q-17 0 -29.5 -6
t-18.5 -15t-10 -20t-3.5 -21t-0.5 -18q1 -6 -4 -9h-1l-16 2q-8 1 -17.5 1.5t-18.5 1t-18 0t-17 -1.5t-15 -3t-13 -5t-9 -7t-1 -8t7 -4q94 2 145 -43q5 -6 11.5 -14t11 -14t15.5 -19.5t16 -19.5q38 -48 8 -136q3 35 -15.5 77.5t-55.5 76.5q-36 32 -81 49.5t-81.5 17
t-54.5 -16.5t-18.5 -52t19.5 -79.5t55 -75.5q35 -31 81.5 -45t82 -10t52.5 18v1h1q-15 -31 -34 -62h-262q-16 0 -27.5 -11.5t-11.5 -27.5v-78v-44h39l72 -1l12 -65l30 -181q1 -8 5.5 -14t11.5 -9.5t14 -3.5h344q6 0 11.5 2t10 5.5t7 9t3.5 10.5l34 247h76q16 0 27.5 13.5
t11.5 30.5v117h-277zM650 440q28 24 54.5 33t41.5 -1l-118 -89q-4 16 2 30.5t20 26.5zM616 642q27 29 63 40.5t51 -1.5l-142 -110q0 2 -0.5 5.5t-0.5 5.5v6q0 3 0.5 6.5t1.5 7.5t3.5 8.5t5.5 9t7.5 10.5t10.5 12zM450 396l-187 154q18 18 59.5 9t78.5 -43q16 -13 27.5 -28
t18.5 -28t10 -25.5t1 -22t-8 -16.5z" />
    <glyph glyph-name="uniE677" unicode="&#xe677;" 
d="M687 254q37 13 65 38q26 24 40.5 54t14 54.5t-13.5 36.5q-5 4 -11 7t-14 4t-17 1t-19 -1.5t-20 -4t-20.5 -7t-21.5 -10.5q12 30 -11 53l-16 16l-1 1t-1.5 2t-1.5 1.5t-2 1.5q-9 9 -21 12q-7 3 -15.5 4.5t-16.5 2.5v3q7 0 13.5 1.5t13.5 3.5q16 2 27 13l22 23q6 5 9.5 12
t4.5 14.5t0 15t-4.5 14.5t-9.5 13l-8 8l-4 3l-3 4l-8 8q-14 14 -34.5 14t-34.5 -14l-16 -16q0 -1 -1 -1q-1 -2 -2 -2.5t-1.5 -1.5t-1.5 -1v-1q-9 -8 -12 -19l-5 3q1 2 3 5l2 4q2 3 3 6q3 5 4.5 11t1.5 12v5v2v2v23q0 13 -6.5 24t-18 18t-24.5 7h-10h-6h-5h-11
q-13 0 -24.5 -7t-18 -18t-6.5 -24v-32q0 -16 9 -29q3 -4 6 -9q-2 -2 -5 -3q-3 11 -11 19l-1 1l-1 1l-2 1l-2 3l-1 1l-16 16q-5 5 -12 8.5t-14.5 4.5t-15 0t-14.5 -4.5t-13 -8.5l-7 -8q-3 -2 -4 -3l-4 -4l-8 -8q-14 -14 -14 -34.5t14 -34.5l23 -23q11 -11 26 -13q5 -2 9.5 -3
t9 -1.5t8.5 -0.5v-3q-17 -1 -32 -7q-12 -3 -21 -12q-1 -1 -2 -1.5t-1 -1.5l-2 -2l-1 -1l-16 -16q-15 -15 -15 -35t15 -35l7 -7l3 -4l4 -3q-37 2 -54 -14q-17 -14 -14.5 -51.5t24.5 -75.5h-55q-10 0 -19 -5t-14 -13.5t-5 -18.5v-74v-42h38l68 -1l12 -62l27 -172q1 -4 2.5 -7
t3.5 -6t4.5 -5.5t6 -4t7 -2t6.5 -0.5h327q12 0 20.5 7.5t9.5 18.5l33 234h71q10 0 19 6t14 15.5t5 20.5v111h-162zM537 504q0 -2 -1 -3t-1 -2t-1 -3l-4 -6q-14 -21 -39 -27h-3q-1 0 -3 -1h-7h-6q-2 1 -4 1h-2q-5 1 -9.5 3t-9 4.5t-8 5.5t-7 6.5t-5.5 7.5l-4 6q0 2 -1 3l-1 2
q0 1 -1 3v2q-1 2 -1.5 4t-1 4.5t-0.5 5.5v4q0 5 1 11q1 5 2.5 9t3.5 8t5 8q14 19 37 24q1 1 2 1h4q3 1 7 1q1 0 2.5 -0.5t3.5 -0.5q3 0 6 -1q8 -1 15 -4.5t12.5 -8.5t10.5 -11q8 -11 10 -25q1 -3 1 -5v-6q0 -5 -0.5 -9.5t-1.5 -8.5v-2h-1zM390 387l22 22q10 10 13 24
q2 -1 3 -2l-6 -10q-9 -12 -9 -28v-32v-1q-6 3 -11.5 6.5t-11.5 6.5t-11 5q6 4 11 9zM410 267l-116 89q35 5 58.5 -1.5t37.5 -18.5q13 -11 24 -32.5t11 -46.5zM526 254h-33q-2 8 -5 15t-6.5 14.5t-8 14.5t-9.5 14h9h5h6h10q15 0 27 8q13 -23 5 -66zM543 360v1v23v4v4v1
q0 12 -6 23q-3 8 -8 15q1 1 3 2q1 -4 2.5 -8.5t4.5 -8.5t6 -7l22 -22q18 -18 42 -14q-11 -16 -17.5 -32.5t-9.5 -32.5q-3 8 -7 15t-7.5 12t-8 10t-8.5 8.5t-8 6.5zM635 308q-2 9 -1 17.5t4.5 17t8.5 15.5t12 14q29 27 56.5 37t42.5 -2z" />
    <glyph glyph-name="uniE678" unicode="&#xe678;" 
d="M719 289q29 15 50 35q31 29 46.5 63t13.5 61.5t-18 40.5q-28 21 -89 5q3 -7 4.5 -14.5t1.5 -15.5v-2q19 5 37 4.5t25 -6.5l-145 -119q-5 25 9 48q-7 -1 -9 -1q-8 0 -15 1.5t-14 4.5q-20 53 -78 99q-1 1 -2.5 2t-5.5 2.5t-7.5 2.5t-6.5 1t-4.5 -2t-0.5 -7.5t6 -13.5
q1 -2 3 -5t6 -13.5t7 -21.5t4 -27t-1.5 -32t-11 -35t-23.5 -36q-17 62 -68 108q-37 33 -83 50.5t-83.5 17t-56.5 -16.5q-24 -20 -17 -74.5t43 -103.5h-49q-4 0 -7.5 -0.5t-7 -2t-6.5 -3t-6 -3.5l-4 -6q-3 -2 -4.5 -5t-3 -6.5t-2 -7t-0.5 -7.5v-80v-45h41l74 -1l12 -67
l30 -187q1 -6 4 -11t7.5 -9t10 -6t11.5 -2h354q9 0 16 4t11.5 10.5t5.5 14.5l35 254h78q11 0 20.5 5.5t15 15t5.5 20.5v125h-158zM255 435q8 7 19.5 10t26.5 1.5t30.5 -6.5t32.5 -15t33 -24q33 -30 48 -61t9 -51h-22zM425 591q32 -1 54 21t21 53q-1 19 -10.5 35t-25 25.5
t-34.5 9.5q-31 1 -53 -21t-21 -53q0 -19 9.5 -35t25.5 -25.5t34 -9.5zM403 708q11 2 18.5 -6t6.5 -19q-1 -8 -7 -13.5t-14 -6.5q-10 -1 -18 6.5t-7 18.5q1 5 4 9.5t7.5 7.5t9.5 3zM455 590h-1q8 -20 27 -33t42 -12q28 1 48.5 21.5t21.5 48.5q1 31 -20 52.5t-51 22.5
q5 -14 5 -28q0 -11 -3.5 -22t-10 -20t-15.5 -16t-20 -10.5t-23 -3.5zM443 572q-6 -2 -11.5 -3t-11.5 -1q-5 0 -9.5 0.5t-8.5 1.5t-8 2.5t-7 3.5q-3 -5 -4.5 -9.5t-2 -10t-0.5 -10.5q0 -8 1.5 -15t4 -13.5t6.5 -12t9 -10.5t11 -9t12 -6.5t13.5 -4t14.5 -1.5q23 0 41 12.5
t26 33.5q-3 -1 -6 -1q-25 0 -44 15t-26 38zM592 550q21 21 51 21q25 0 44.5 -15.5t25.5 -38.5q23 23 21 55q-1 28 -21.5 48t-48.5 20q-31 1 -52.5 -20.5t-21.5 -51.5q0 -9 2 -18zM638 549q-11 0 -21.5 -3t-19 -9t-15.5 -13.5t-11 -17.5t-6 -21q28 -23 46.5 -43t30.5 -37
q14 1 26.5 7t21.5 15.5t14.5 22.5t4.5 27q0 30 -21 51t-50 21zM617 477q-11 -2 -18.5 5.5t-6.5 18.5q0 4 1.5 7.5t4.5 6.5t6.5 4.5t7.5 2.5q7 1 13 -2.5t9.5 -9.5t2.5 -13q-1 -8 -6.5 -14t-13.5 -6zM358 523h7q-3 6 -5.5 11.5t-3.5 12t-1 13.5q0 17 7 32q-15 10 -23.5 25.5
t-8.5 34.5v10q-20 -8 -32.5 -26t-12.5 -41q0 -12 4 -23t10.5 -19.5t15.5 -15.5t20 -10.5t23 -3.5z" />
    <glyph glyph-name="uniE679" unicode="&#xe679;" 
d="M522 316v2q1 2 -0.5 8t4 22.5t17.5 33.5q15 -7 36.5 -9t47 2.5t52.5 14t54.5 27.5t50.5 41q43 42 66 95t22 96.5t-22 64.5q-16 16 -46 20t-65 -3.5t-74.5 -29t-71.5 -53.5q-50 -50 -71 -114t-10 -110q-47 -42 -50 -108h-294q-18 0 -31 -12.5t-13 -30.5v-85v-48h44h78
l13 -72l32 -198q1 -6 4 -11.5t8 -9.5t10.5 -6t12.5 -2h375q9 0 16.5 4t12 11t6.5 15l37 269h82q17 0 30 15t13 33v128h-376zM635 626q18 18 39.5 31.5t42 20.5t39.5 9t34.5 -1.5t24.5 -11.5l-227 -228q-10 11 -12 32t3 45.5t19.5 52.5t36.5 50zM468 392q19 19 20 62
t-21.5 97.5t-64.5 96.5q-43 43 -96 66t-96 22t-65 -22q-10 -10 -15.5 -27.5t-5.5 -38t5.5 -45t16 -49t27.5 -50t38 -46.5q42 -42 96.5 -64.5t98 -21.5t62.5 20zM360 626q22 -22 36.5 -50t19.5 -52.5t3 -45.5t-11 -32l-228 228q9 8 24.5 11.5t34.5 1.5t39.5 -9t42 -20.5
t39.5 -31.5z" />
    <glyph glyph-name="uniE67A" unicode="&#xe67a;" 
d="M425 416l-140 80q-7 4 -17 5.5t-19.5 0t-16.5 -5.5l-140 -80q-11 -7 -19 -20.5t-8 -25.5v-162q0 -12 8 -25.5t19 -20.5l140 -81q11 -6 26.5 -6t26.5 6l140 81q11 7 18.5 20.5t7.5 25.5v162q0 12 -7.5 25.5t-18.5 20.5zM304 289q0 -39 -27 -66t-66 -27q-25 0 -46.5 12.5
t-34 34t-12.5 46.5v71q0 5 1.5 9t4.5 7t7 4.5t8.5 1.5t8.5 -1.5t7 -4.5t5 -7t2 -9v-71q0 -13 6.5 -24.5t18 -18t24.5 -6.5q20 0 34.5 14.5t14.5 34.5v71q0 9 6.5 15.5t15.5 6.5q5 0 9 -1.5t7 -4.5t4.5 -7t1.5 -9v-71zM399 218q0 -9 -6.5 -15.5t-15.5 -6.5t-15.5 6.5
t-6.5 15.5v142q0 9 6.5 15.5t15.5 6.5t15.5 -6.5t6.5 -15.5v-142zM945 390h-175q-13 -2 -14 -14v-175q0 -14 14 -14h175q13 0 13 14v175q0 4 -1.5 7t-5 5t-6.5 2zM783 215v148h148v-148h-148zM711 361h-74v15q0 3 -0.5 5t-2.5 3l-2 4q-2 1 -4 1.5t-5 0.5q-12 -2 -13 -14v-15
h-74q-6 0 -10 -4t-4 -10v-88q0 -5 4 -9t10 -4h74v-45q0 -14 13.5 -14t13.5 14v45h74q6 0 10 4t4 9v88q0 6 -4 10t-10 4zM637 273v61h61v-61h-61zM549 273v61h61v-61h-61zM878 267.5q0 -3.5 2 -6.5t5 -5t7 -2t7 2t5 5t2 6.5t-2 6.5t-5 5t-7 2t-7 -2t-5 -5t-2 -6.5zM912 254
h-41v27h29q12 2 14 14q0 13 -14 13h-29v15h37q5 0 9 4t4 9.5t-4 9.5t-9 4h-101q-6 0 -10 -4t-4 -9.5t4 -9.5t10 -4h37v-15h-30q-3 0 -5.5 -1t-4 -3t-3 -4.5t-1.5 -4.5q0 -14 14 -14h30v-27h-41q-14 0 -14 -14q0 -5 4 -9t10 -4h109q13 0 13 13q0 6 -4 10t-9 4z" />
    <glyph glyph-name="uniE67B" unicode="&#xe67b;" 
d="M64 568h224v-112h-224v112zM400 568h560v-112h-560v112zM64 345h224v-113h-224v113zM400 345h560v-113h-560v113zM64 121h224v-112h-224v112zM400 121h560v-112h-560v112z" />
    <glyph glyph-name="uniE67C" unicode="&#xe67c;" 
d="M407 514l552 -1l1 55l-896 2v-55l336 -1h7zM364 346l483 -1v56l-783 1v-55l294 -1h6zM364 178l483 -1v55l-783 2v-55l293 -1h7zM400 65l-336 1v-56l895 -1l1 55l-553 1h-7z" />
    <glyph glyph-name="uniE67D" unicode="&#xe67d;" 
d="M745 326h-176q-5 0 -9.5 3t-7 7t-2.5 9v1v1v120q0 16 -11 27t-27 11q-15 0 -26 -11t-12 -26v-197q1 -8 6.5 -13.5t13.5 -6.5h253q9 1 16.5 6t12 13.5t4.5 17.5q0 26 -24 35q-5 2 -11 3zM512 735q-91 0 -173.5 -35.5t-142.5 -95t-95.5 -142.5t-35.5 -174q0 -61 16 -119
t45 -107t70.5 -90.5t90.5 -70t107 -44.5t118 -16q91 0 174 35t143 95t95.5 143t35.5 174t-35.5 174t-95.5 142.5t-143 95t-174 35.5zM512 -43q-90 0 -166 44t-120.5 120.5t-44.5 166.5t44.5 166.5t120.5 120.5t166 44t166.5 -44t121 -120.5t44.5 -166.5t-44.5 -166.5
t-121 -120.5t-166.5 -44z" />
    <glyph glyph-name="uniE67E" unicode="&#xe67e;" horiz-adv-x="1484" 
d="M607 735q-35 0 -67 -13.5t-55.5 -36.5t-37 -55t-13.5 -68v-722h5l319 256l320 -256h4v895h-475zM886 239l-128 90l-128 -90l45 150l-125 95l157 3l51 147l51 -147l157 -3l-125 -95z" />
    <glyph glyph-name="uniE67F" unicode="&#xe67f;" horiz-adv-x="1000" 
d="M352 435q6 0 11 2t8.5 5.5t5.5 9t2 11.5q0 28 -27 28q-9 0 -16.5 -3.5t-12.5 -10t-5 -14.5q0 -12 10 -20t24 -8zM507 491q-5 0 -9.5 -1t-9 -3.5t-7.5 -6t-5 -8t-2 -9.5q0 -12 10 -20t23 -8t20.5 7.5t7.5 20.5t-7.5 20.5t-20.5 7.5zM702 282q13 0 20.5 7t7.5 16
q0 5 -3 10.5t-10 8.5t-15 3t-15 -7t-7 -15.5t7 -15.5t15 -7zM580 282q12 0 20 7t8 16t-8 15.5t-20 6.5q-6 0 -11 -3t-8 -8.5t-3 -10.5q0 -9 7 -16t15 -7zM77 316q0 -71 22 -138t62.5 -121t94.5 -94.5t121 -63t139 -22.5q89 0 170.5 35t140 93.5t93.5 140t35 171t-35 170.5
t-93.5 140t-140 93.5t-170.5 34.5t-170.5 -34.5t-140.5 -93.5t-93.5 -140t-34.5 -171zM627 430q-79 0 -134 -52.5t-55 -126.5q0 -23 7 -47q-11 -1 -21 -1q-22 0 -78 11l-78 -39l22 68q-89 63 -89 152q0 80 65.5 136t157.5 56q54 0 102 -20.5t80.5 -57t42.5 -80.5
q-12 1 -22 1zM831 254q0 -71 -78 -130l16 -56l-61 33q-11 -2 -17 -3.5t-15.5 -3.5t-18 -3t-16.5 -1q-79 0 -134 48t-55 116t55 116t134 48q37 0 72 -13t60.5 -35t41.5 -52.5t16 -63.5z" />
    <glyph glyph-name="uniE680" unicode="&#xe680;" 
d="M764 288l-78 79h-1l-369 369l-56 -57l354 -391l-354 -391l56 -56z" />
    <glyph glyph-name="uniE681" unicode="&#xe681;" 
d="M260 288l78 79h1l369 369l56 -57l-354 -391l354 -391l-56 -56z" />
    <glyph glyph-name="uniE682" unicode="&#xe682;" 
d="M168 736h75v-18h-75v18zM273 736h75v-18h-75v18zM377 736h75v-18h-75v18zM481 736h75v-18h-75v18zM586 736h75v-18h-75v18zM690 736h75v-18h-75v18zM794 736h75v-18h-75v18zM900 736v-18h42v-40h17v58h-59zM942 -140h-58v-17h75v75h-17v-58zM942 22h17v-75h-17v75z
M942 126h17v-75h-17v75zM942 230h17v-75h-17v75zM942 335h17v-75h-17v75zM942 439h17v-75h-17v75zM942 543h17v-75h-17v75zM942 648h17v-75h-17v75zM780 -140h75v-17h-75v17zM676 -140h75v-17h-75v17zM571 -140h75v-17h-75v17zM467 -140h75v-17h-75v17zM363 -140h75v-17h-75
v17zM259 -140h75v-17h-75v17zM154 -140h75v-17h-75v17zM64 736v-75h18v57h57v18h-57h-18zM64 632h18v-75h-18v75zM64 527h18v-75h-18v75zM64 423h18v-75h-18v75zM64 319h18v-75h-18v75zM64 214h18v-75h-18v75zM64 110h18v-75h-18v75zM64 6h18v-75h-18v75zM82 -100h-18v-57
h60v17h-42v40zM707 282v11v45h-147v102q0 17 -12 30t-29 14h-56v-146h-102q-17 0 -30 -12t-14 -30v-55h146v-102q0 -18 12 -31t30 -14h55v147h102q12 0 22 5.5t16 15t7 20.5z" />
    <glyph glyph-name="uniE683" unicode="&#xe683;" 
d="M312 -159l199 151l199 -151v895h-398v-896v1z" />
    <glyph glyph-name="uniE684" unicode="&#xe684;" 
d="M943 634h-879v-689v689l151 -345l-151 -344h879q7 0 12 5t5 12v655q0 7 -5 12t-12 5z" />
    <glyph glyph-name="uniE685" unicode="&#xe685;" 
d="M720 736h-414q-31 0 -52.5 -20t-21.5 -48v-759q0 -28 21.5 -48t52.5 -20h414q31 0 53 20t22 48v759q0 28 -22 48t-53 20zM641 -82h-256v25h256v-25zM717 23h-408v611h408v-611z" />
    <glyph glyph-name="uniE686" unicode="&#xe686;" 
d="M668 503l-235 136q-6 3 -12 5t-12.5 3.5t-13.5 2t-14 0t-13.5 -2t-12.5 -3.5t-11 -5l-235 -136q-19 -10 -32 -33t-13 -44v-271q0 -21 13 -43.5t32 -33.5l235 -136q18 -10 44 -10t45 10l235 136q18 11 31 33.5t13 43.5v271q0 21 -13 44t-31 33zM465 291q0 -65 -46 -111
t-110.5 -46t-110.5 46t-46 111v119q0 16 11 26.5t26 10.5q10 0 18.5 -5t13.5 -13.5t5 -18.5v-119q0 -23 11 -42t30 -30t41.5 -11t41.5 11t30 30t11 42v119q0 16 11 26.5t26 10.5t26 -10.5t11 -26.5v-119zM624 171q0 -15 -10.5 -26t-26.5 -11q-7 0 -14 3t-12 8t-8 12t-3 14
v239q0 16 11 26.5t26 10.5q8 0 15 -3t11.5 -8t7.5 -11.5t3 -14.5v-239zM765 291q0 -6 -4 -9.5t-9 -3.5q-4 0 -7 1.5t-4.5 4.5t-1.5 7q0 13 13 13q4 0 7 -2t4.5 -5t1.5 -6zM940 336h-40q-4 0 -7 -1t-5 -2.5t-4 -4t-3 -5.5t-1 -6v-68q2 -3 4 -4h15q4 0 4 4v60q1 3 4 4h26
q4 0 4 -4v1v-61q0 -2 1 -3t2 -1h16q3 2 4 4v68q-4 16 -20 19zM854 336h-30q-14 0 -24.5 -10t-10.5 -24v-23q0 -13 8.5 -22.5t21.5 -11.5h35q3 2 3 4v16q0 3 -3 3h-29q-5 0 -9 4t-4 9v19q0 6 4 9.5t9 3.5h29q3 2 3 4v16q0 3 -3 3z" />
    <glyph glyph-name="uniE687" unicode="&#xe687;" 
d="M307 553q0 -35 -25 -60t-61 -25q-14 0 -27 4t-23 12t-18 18.5t-12.5 23.5t-4.5 27q0 35 25 60t60.5 25t60.5 -25t25 -60zM904 553q0 -35 -25 -60t-60 -25q-17 0 -33 6.5t-27.5 18t-18 27.5t-6.5 33q0 35 25 60t60 25q23 0 42.5 -11.5t31 -31t11.5 -42.5zM159 210h563
v-102h-563v102zM583 399v266h-132v-266h-324v-103h644v-247q0 -8 -3 -15t-8 -12.5t-12 -9t-14 -4.5h-607v-92h707v2q30 5 50 28.5t20 55.5v397h-321z" />
    <glyph glyph-name="uniE688" unicode="&#xe688;" 
d="M900 77q-17 -38 -28 -58.5t-30 -50.5q-13 -20 -24.5 -35.5t-28 -34t-31.5 -30.5t-34.5 -20.5t-38.5 -8.5q-26 0 -68 19t-85 18q-33 0 -59.5 -9.5t-48.5 -19t-46 -8.5q-45 0 -81.5 34t-72.5 88q-52 78 -75 164.5t-16.5 160.5t39.5 125q10 15 21.5 28.5t24 24.5t26.5 20.5
t28 17t29 12t29.5 7t29.5 2.5q36 0 90 -19t82 -19q24 0 75.5 19.5t94.5 19.5q47 0 92.5 -24t79.5 -67q-54 -30 -80 -82.5t-21 -105t38.5 -100t88.5 -68.5zM641 588q24 31 36.5 69t7.5 76q-24 -2 -49.5 -12t-48.5 -26t-39 -36q-9 -11 -17 -23.5t-14.5 -27t-10 -29t-5 -30.5
t1.5 -31q38 -1 76 18.5t62 51.5z" />
    <glyph glyph-name="uniE689" unicode="&#xe689;" 
d="M583 469q-9 -1 -43 -4.5t-50 -5.5t-44 -6.5t-49.5 -10.5t-40.5 -15q-59 -25 -93.5 -75.5t-34.5 -120.5q0 -90 50.5 -139t129.5 -49q65 0 107 19t92 69q3 -5 9.5 -14.5t9 -13.5t8.5 -11.5t11 -12.5t13 -12.5t18 -15.5q15 -9 28 2q48 43 92 80q15 12 1 32q-2 2 -9.5 12.5
t-9.5 13.5t-8 12.5t-8 15.5t-5 15.5t-4.5 20t-1.5 21.5v188q0 5 0.5 23t0.5 24t-0.5 22t-1.5 23t-3 20.5t-4.5 21t-6.5 19t-9.5 19.5t-12.5 17.5t-15 17.5q-32 31 -82 45.5t-100 14.5q-45 0 -86.5 -9.5t-80 -29.5t-65.5 -57.5t-37 -87.5q-2 -11 4 -17.5t14 -8.5l117 -12
q8 0 13.5 6.5t7.5 15.5q7 35 33.5 53.5t63.5 18.5q20 0 38.5 -7.5t28.5 -23.5q4 -5 6.5 -10.5t4 -13t2.5 -12t1.5 -13.5t0.5 -13v-14v-11v-16zM560 219q-14 -26 -36 -40.5t-47 -14.5q-34 0 -53.5 24t-19.5 64q0 36 15 61.5t42.5 37.5t56 17t65.5 5v-26v-29q0 -6 -1 -23.5
t-3.5 -27t-7 -23t-11.5 -25.5zM836 -3q-150 -64 -312 -64q-222 0 -408 109q-7 4 -11 -1.5t2 -11.5q82 -74 186.5 -114.5t221.5 -40.5q87 0 177.5 26.5t156.5 75.5q11 8 4.5 17t-17.5 4zM925 48q-6 7 -30 10.5t-58.5 -2t-57.5 -21.5q-6 -5 -5.5 -9t7.5 -4q94 12 105.5 -3
t-23.5 -103q-2 -4 -0.5 -6.5t4.5 -2t7 3.5q17 14 30 36.5t17.5 42.5t6.5 37.5t-3 20.5z" />
    <glyph glyph-name="uniE68A" unicode="&#xe68a;" 
d="M512 736q-61 0 -119 -16t-107 -45t-90.5 -70.5t-70.5 -90.5t-45 -107t-16 -119q0 -73 22.5 -141t64 -123t96.5 -96.5t123.5 -64t141.5 -22.5q91 0 173.5 35.5t142.5 95.5t95.5 142.5t35.5 173.5t-35.5 174t-95.5 143t-142.5 95.5t-173.5 35.5zM396 488v-67h332v-66h-332
v-67l-133 100zM628 88v67h-332v66h332v67l133 -100z" />
    <glyph glyph-name="uniE68B" unicode="&#xe68b;" 
d="M189 606h646v130h-74h-572v-130zM189 145h258v-302h130v302h258l-323 387z" />
    <glyph glyph-name="uniE68C" unicode="&#xe68c;" 
d="M128 736v-285v-610l524 -1q97 2 168.5 83t73.5 193l1 620h-767zM230 633h564l-1 -477h-207v-213h-357l1 506v184zM654 -58l-11 1v156h149q-7 -63 -45.5 -109t-92.5 -48zM230 449zM415 377q26 0 48 13t35 35t13 48v1q0 39 -28 67t-68 28q-39 0 -67 -28t-28 -67v-1
q0 -40 28 -68t67 -28zM320 289h384v-52h-384v52zM320 156h201v-52h-201v52z" />
    <glyph glyph-name="uniE68D" unicode="&#xe68d;" 
d="M310 627q-98 -1 -170 -76t-74 -175h-1l-1 -535l536 -1q99 1 172 72.5t75 169.5l2 544zM744 82q-1 -38 -20 -70t-51 -50t-71 -19l-435 1l1 430q1 62 41.5 106t100.5 44l435 -1l-1 -441v0zM915 735h-530v-46h530v-529h45v575h-45zM298 137h317v-63h-317v63zM298 265h317
v-64h-317v64zM298 393h317v-63h-317v63z" />
    <glyph glyph-name="uniE68E" unicode="&#xe68e;" 
d="M945 -42q14 4 14 18l1 93h-1v558l1 1v77q0 12 -9.5 19t-20.5 4l-412 -111q-6 -2 -12 0l-412 111q-8 1 -14.5 -1.5t-11 -8t-4.5 -13.5v-729q0 -15 14 -19l429 -115q5 -1 10 0zM429 -28l-240 64q-17 4 -17 22v510q0 12 9 19t20 4l240 -64q17 -5 17 -23v-510q0 -8 -4 -13.5
t-11 -8t-14 -0.5zM834 36l-239 -64q-5 -2 -10.5 -0.5t-9.5 4.5t-6.5 7.5t-2.5 10.5v510q0 18 17 22l239 65q11 3 20.5 -4t9.5 -19v-510q0 -8 -5 -14t-13 -8z" />
    <glyph glyph-name="uniE68F" unicode="&#xe68f;" 
d="M933 518l-367 212q-21 12 -41.5 0t-20.5 -35v-147q-6 0 -12 0.5t-12 0.5h-104q-126 0 -215.5 -90t-89.5 -216v-97v-8v-1v-1v-1v-4q1 -1 1 -2v-1v-5v-2v-1v-1q0 -2 1 -3v-3v-1v-3q0 -1 1 -3v-1v-4q0 -1 1 -2v-1q0 -3 0.5 -4t0.5 -2v-1q1 -3 1 -4v-3h1v-1v-3q0 -1 1 -3v-1
q1 -2 1 -3v-1t1 -3q0 -2 1 -3l1 -3v-1l1 -3q0 -1 1 -3v-1q0 -2 1 -3q0 -1 0.5 -1.5t0.5 -1.5q1 -3 1.5 -4t1 -3t1.5 -3v-2q0 -1 1 -2l1 -3l2 -3q0 -1 1 -2v-1q0 -2 1 -4l2 -3l1 -3q1 -2 1.5 -3.5t1.5 -3.5q1 -1 2 -3t2 -3q0 -1 1 -3l2 -2v-1l2 -3q1 -2 2 -3q0 -2 1 -3l1 -2
q1 0 1 -1q1 -1 2 -3l2 -3q0 -1 1 -1l1 -2q1 -2 2 -3q0 -1 2 -3l1 -1v-1l3 -3q1 -2 2 -3t2 -3l3 -3l1 -2q2 -3 3 -3l1 -2l1 -1l3 -3l1 -2l3 -3q1 0 1 -1l1 -1l3 -3l1 -1q0 -1 1 -1l3 -3l1 -1v-1l4 -3v-1h1l4 -4h1v-1q3 -2 4 -3v-1h1q3 -2 5 -4q12 -10 24.5 -18.5t26.5 -16.5
q3 -1 6 -3h1q2 -1 5 -3h1q1 -1 2.5 -1.5t2.5 -1.5h1q2 -1 6 -2v-1h1q1 -1 2.5 -1.5t2.5 -0.5l1 -1l5 -2h2q2 -1 5 -2h1l1 -1q1 0 2 -0.5t3 -0.5v-1h2q2 0 5 -1l1 -1q3 -1 5 -1h1l1 -1q3 0 5 -1l2 -1q3 0 5 -1h2q3 -1 5 -1t2 -1h5l3 -1q2 0 5 -1h2l5 -1h2h5h1v0q6 -1 12 -1
q3 0 6 1t5.5 3t4 5t1.5 7v41v4v47q0 10 -7 19t-17 11q-25 6 -47 18q-31 17 -54.5 44.5t-35.5 61.5v2l-1 1v3h-1v1q-1 3 -2 7v1q0 1 -1 2v2v2l-1 2v1q0 2 -1 3v2v3l-1 1v2v2v2q-1 1 -1 2v3v1v3v1v3q0 1 -1 1v3v1v2v2v61q0 78 56 133.5t134 55.5h64q23 0 44 -5v-139
q0 -24 20.5 -35.5t41.5 -0.5l367 213q21 12 21 35.5t-21 35.5z" />
    <glyph glyph-name="uniE690" unicode="&#xe690;" 
d="M140 660h149v-149h-149v149zM736 660h148v-149h-148v149zM140 64h149v-149h-149v149zM103 287h74v-74h-74v74zM475 144h75v-80h-75v80zM662 144h74v-80h-74v80zM475 -85h75v-75h-75v75zM661 -85h78v-75h-78v75zM724 139h87v-75h-87v75zM811 64h74v-74h-74v74zM885 213h74
v-149h-74v149zM885 -11h74v-149h-74v149zM587 64h75v-149h-75v149zM401 64h74v-149h-74v149zM736 -11h75v-149h-75v149zM661 139h75v-149h-75v149zM811 362h74v-149h-74v149zM475 362h74v-80h-74v80zM624 362h74v-80h-74v80zM327 335h74v-80h-74v80zM549 436h74v-74h-74v74z
M475 524h75v-87h-75v87zM401 660h74v-83h-74v83zM475 735h74v-75h-74v75zM401 586h223v-75h-223v75zM624 362h261v-74h-261v74zM177 362h224v-74h-224v74zM327 287h371v-74h-371v74zM475 213h261v-74h-261v74zM66 734v-297h297v297h-297zM327 473h-225v225h225v-225zM66 138
v-297h297v297h-297zM327 -123h-225v225h225v-225zM661 734v-297h298v297h-298zM922 473h-224v225h224v-225z" />
    <glyph glyph-name="uniE691" unicode="&#xe691;" 
d="M599 32q52 5 91.5 17.5t71 36t51 61.5t26.5 91v459h-523q-63 -1 -117.5 -30.5t-86.5 -78.5t-33 -104h-1v-452h151l35 -60q4 -6 12.5 -9.5t17.5 -3.5t17.5 3.5t12.5 9.5l34 60h241zM555 147h-208l-24 -41q-10 -17 -30 -17t-30 18l-22 40h-47v314q0 121 166 121v1h365
l1 -312v-2v-1v-8q-1 -2 -1 -4.5t-1 -7.5t-2 -7q-5 -21 -16 -38.5t-26.5 -30t-35.5 -19.5t-42 -7h-2h-2q-17 -1 -43 1zM958 469h-72v-72v-311q0 -25 -16.5 -44t-36.5 -29t-46 -16t-36.5 -7.5t-16.5 -1.5v0l-20 -34q-8 -14 -22.5 -14t-22.5 15l-19 33h-230v-69h213l32 -54
q6 -11 24.5 -11t25.5 11l36 53q44 3 78.5 14.5t55.5 25.5t36.5 33.5t22 33.5t10.5 31t4 21v9v383z" />
    <glyph glyph-name="uniE692" unicode="&#xe692;" 
d="M512 736q-91 0 -174 -35.5t-143 -95.5t-95.5 -143t-35.5 -174q0 -73 22.5 -141t64 -123t96.5 -96.5t123.5 -64t141.5 -22.5q91 0 174 35t143 95t95.5 143t35.5 174q0 73 -23 141.5t-64 123.5t-96 96.5t-123.5 64t-141.5 22.5zM573 -43q27 30 33 54t-3.5 40.5t-25.5 32
t-31.5 34t-25 40t-2 56t34.5 77.5q-42 -20 -72 -43t-45.5 -47t-24.5 -47t-7.5 -47t4.5 -43t12.5 -39t15.5 -31.5t14 -23.5l9 -13q-53 14 -88.5 42.5t-51 63.5t-18.5 74.5t4.5 75.5t22.5 68q9 19 20 35q2 2 15.5 19.5t23 32.5t21 36.5t16 44t0.5 43.5q1 -1 2.5 -3.5t6 -10.5
t8 -17t7.5 -22.5t6 -28t1.5 -33.5t-3.5 -38q55 61 75 150t9 140q45 -32 86 -87.5t70 -121t40.5 -137t2 -134.5t-50.5 -115t-111 -77z" />
    <glyph glyph-name="uniE693" unicode="&#xe693;" 
d="M959 732h-885v-116h73v-768h1l368 136l368 -136v768h75v116zM769 23l-253 77l-253 -77v593h506v-593z" />
    <glyph glyph-name="uniE694" unicode="&#xe694;" 
d="M695 683q-16 25 -44 33q-45 13 -98 17q-10 1 -20 1.5t-20 0.5h-1v0q-21 0 -41 -2q-29 -2 -53.5 -6.5t-43.5 -10.5q-29 -8 -45 -33l-226 -357q44 -44 84 -95t68 -96.5t52.5 -91t39.5 -81.5t25.5 -64t15.5 -44l4 -15h240q3 11 9.5 30.5t30.5 78t54 114.5t82.5 129.5
t113.5 134.5zM553 -41v276q14 6 25 15.5t19 21.5t12.5 26.5t4.5 30.5q0 42 -30 72t-72 30t-72 -30t-30 -72q0 -31 17 -56.5t44 -37.5v-276q-107 257 -221 371l152 254q12 17 33 23q41 11 77 11t77 -11q21 -6 33 -23l153 -254q-114 -114 -222 -371z" />
    <glyph glyph-name="uniE695" unicode="&#xe695;" 
d="M960 609q0 -12 -7.5 -20.5t-19.5 -8.5h-841q-4 0 -7.5 1t-6.5 2.5t-5.5 4.5t-4 6t-2.5 7t-1 8v5q0 12 8 20.5t19 8.5h841q6 0 11 -2t8.5 -6t5.5 -9.5t2 -11.5v-5zM960 289q0 -12 -7.5 -20.5t-19.5 -8.5h-841q-11 0 -19 8.5t-8 20.5v6q0 12 8 20.5t19 8.5h841q8 0 14 -4
t9.5 -10.5t3.5 -14.5v-6zM960 -31q0 -12 -7.5 -20.5t-19.5 -8.5h-841q-11 0 -19 8.5t-8 20.5v6q0 7 3.5 14t9.5 11t14 4h841q8 0 14 -4t9.5 -11t3.5 -14v-6z" />
    <glyph glyph-name="uniE696" unicode="&#xe696;" 
d="M710 15v160v206v41q0 46 -22.5 84.5t-61 61t-84.5 22.5h-38h-272h-160q-3 0 -5 -2t-2 -5v-161v-247v-160q0 -6 7 -6h125q7 0 7 6v157v289q0 7 6 7h271q25 0 46 -12.5t33.5 -33.5t12.5 -46v-190v-171q0 -6 6 -6h124q5 1 7 6zM456 15q0 -6 -7 -6h-125q-7 0 -7 6v342
q0 6 7 6h125q7 0 7 -6v-342zM958 15q0 -6 -6 -6h-126q-7 0 -7 6v568q0 7 7 7h126q6 0 6 -7v-568z" />
    <glyph glyph-name="uniE697" unicode="&#xe697;" 
d="M914 736h-3h-3h-791h-4h-3q-18 0 -31 -13t-13 -32v-804v0q0 -19 13 -32t31 -13h804q12 0 22.5 6t16.5 16.5t6 22.5v0v358v446q0 19 -13 32t-32 13zM182 -69q-11 0 -19 8t-8 19v287v376q0 11 7.5 18.5t17.5 7.5h665q10 0 17.5 -7.5t7.5 -18.5v-376v-287q0 -11 -8 -19
t-19 -8h-661zM518 546h-11q-11 0 -21 -7.5t-16 -17.5t-6 -20v-424q0 -15 13 -29.5t30 -14.5h11q17 0 29.5 14.5t12.5 29.5v424q0 10 -5.5 20t-15.5 17.5t-21 7.5zM769 284v10q0 17 -14.5 30t-29.5 13h-425q-9 0 -19.5 -5.5t-17.5 -15.5t-7 -22v-10q0 -7 2.5 -13.5t7.5 -12
t10.5 -9.5t12 -6t11.5 -2h425q15 0 29.5 13t14.5 30z" />
    <glyph glyph-name="uniE698" unicode="&#xe698;" 
d="M914 736h-3h-3h-791h-4h-3q-18 0 -31 -13t-13 -32v-804v0q0 -19 13 -32t31 -13h804q12 0 22.5 6t16.5 16.5t6 22.5v0v358v446q0 19 -13 32t-32 13zM182 -69q-11 0 -19 8t-8 19v287v376q0 11 7.5 18.5t17.5 7.5h665q10 0 17.5 -7.5t7.5 -18.5v-376v-287q0 -11 -8 -19
t-19 -8h-661zM734 329h-443q-14 0 -24.5 -10.5t-10.5 -25.5v-8q0 -15 10.5 -25t24.5 -10h443q14 0 24.5 10t10.5 25v8q0 15 -10.5 25.5t-24.5 10.5z" />
    <glyph glyph-name="uniE699" unicode="&#xe699;" 
d="M871 540h-223v-54h223v54zM761 354q-39 0 -63.5 -23t-26.5 -62h178q-8 85 -88 85zM768 99q28 0 53.5 14t33.5 38h96q-43 -134 -186 -134q-93 0 -148.5 57.5t-55.5 151.5q0 91 57 151t147 60q60 0 105 -30t67 -78.5t22 -107.5q0 -8 -1 -21h-287q0 -48 25 -74.5t72 -26.5z
M186 121h129q90 0 90 73q0 78 -87 78h-132v-151zM186 355h123q34 0 53.5 16t19.5 49q0 63 -83 63h-113v-128zM65 577h259q38 0 68 -6t55.5 -20.5t39 -42t13.5 -67.5q0 -79 -75 -115q50 -14 75 -50t25 -89q0 -33 -10.5 -59.5t-28.5 -45t-43 -31t-53 -18.5t-58 -6h-267v550z
" />
    <glyph glyph-name="uniE69A" unicode="&#xe69a;" 
d="M513 -158q-91 0 -173.5 35.5t-142.5 95t-95.5 142.5t-35.5 173.5t35.5 173.5t95.5 143t142.5 95.5t173.5 35.5t173.5 -35.5t142.5 -95.5t95.5 -143t35.5 -173.5t-35.5 -173.5t-95.5 -142.5t-142.5 -95t-173.5 -35.5zM890 227q-8 3 -18.5 6t-36 7.5t-51.5 7t-62 2
t-70 -5.5q23 -62 41 -127t24 -94.5t9 -50.5q65 44 108 110.5t56 144.5zM662 -63q-23 139 -81 289h-2l-1 -1q-60 -21 -112.5 -52.5t-83.5 -59t-56.5 -58.5t-33.5 -44.5t-13 -23.5q103 -81 234 -81q39 0 76.5 8t72.5 23v0zM229 33q7 11 17 26t39.5 50t62.5 64.5t84.5 61.5
t107.5 50q7 2 15 4q-14 31 -31 65q-85 -25 -184 -38.5t-140 -15t-68 -0.5q-1 -7 -1 -12q0 -146 98 -255zM139 366q25 0 61 1.5t124 13t168 32.5q-66 117 -141 221q-27 -13 -51.5 -29.5t-45.5 -36.5t-39.5 -43t-33 -48t-25 -53t-17.5 -58zM424 659q76 -102 142 -223
q38 14 72 33t55 34.5t38.5 32.5t24 24.5t10.5 13.5q-108 96 -253 96q-11 0 -23 -1l-22 -2q-12 -1 -23 -3t-21 -5zM808 529q-6 -8 -17.5 -20.5t-37.5 -36t-67.5 -48.5t-90.5 -45q14 -29 26 -55l4 -10l4 -10q55 4 93.5 5t82.5 -4t61 -8t29 -5q-2 134 -86 237h-1z" />
    <glyph glyph-name="uniE69B" unicode="&#xe69b;" 
d="M258 -148h-192v638h192v-638zM960 -148h-191v341q0 133 -95 133q-11 0 -20.5 -1.5t-18 -4.5t-15.5 -7.5t-13.5 -10.5t-12 -13.5t-10 -17t-7.5 -19.5v-400h-191q2 575 0 638h151l11 -127h4q15 24 34 43.5t42.5 33.5t52 22t59.5 8q34 0 62 -6.5t52.5 -21t44.5 -36.5
q61 -69 61 -194v-360zM261 650q0 -16 -5 -30.5t-14 -26t-21.5 -20.5t-27.5 -14t-31 -5q-11 0 -22.5 2.5t-21 7.5t-18 11.5t-15.5 14.5t-12 17.5t-7.5 20.5t-2.5 22q0 13 3.5 25.5t10 23t15.5 19t20 15t24 10t26 3.5q27 0 50 -13t36 -35t13 -48z" />
    <glyph glyph-name="uniE69C" unicode="&#xe69c;" horiz-adv-x="1030" 
d="M0 812zM790 292q0 -112 -79 -191t-191 -79t-191.5 79t-79.5 191q0 27 6 52h-182v-359q0 -58 41 -99t98 -41h615q38 0 70 19t51 51t19 70v359h-182q5 -26 5 -52zM827 739h-615q-57 0 -98 -41t-41 -98v-152h226q15 21 33 38.5t39.5 31.5t45 24t50 15.5t53.5 5.5
q67 0 125 -31t95 -84h227v152q0 57 -41 98t-99 41zM895 567q0 -11 -7 -18t-18 -7h-74q-4 0 -8 1t-7 3.5t-5.5 5.5t-3.5 7t-1 8v75q0 10 7 17t18 7h74q11 0 18 -7t7 -17v-75zM686 292q0 45 -22 83.5t-60.5 61t-83.5 22.5t-83.5 -22.5t-61 -61t-22.5 -83.5q0 -69 49 -117.5
t118 -48.5t117.5 48.5t48.5 117.5z" />
    <glyph glyph-name="uniE69D" unicode="&#xe69d;" 
d="M368 49v698h-202v-893h692v196z" />
    <glyph glyph-name="uniE69E" unicode="&#xe69e;" 
d="M673 665q34 0 61.5 -8t45 -19.5t38.5 -30.5q21 2 46.5 11.5t47.5 20.5q17 9 23 12q-21 -56 -60 -86q-16 -13 -20 -14v-1q18 1 35.5 5t39.5 12.5t29 11.5v-1q-27 -43 -62 -71q-4 -3 -29 -23q1 -76 -8 -118q-9 -39 -21 -74.5t-27.5 -67.5t-35 -61t-42 -54.5t-48.5 -48
t-55 -41t-62 -33.5t-69 -26q-54 -17 -125.5 -20.5t-134.5 9.5q-31 8 -57.5 16.5t-50.5 19.5q-28 12 -51 27q-5 2 -9 4.5t-8 4.5q6 0 14.5 -1t14.5 -1.5t15 -0.5t15 1q7 1 17 2t19 1.5t16 2.5q68 15 111 40q3 2 12 6.5t14.5 8t12.5 8.5t10 9q-25 0 -54 10q-82 29 -117 117
q4 0 7.5 -0.5t9 -0.5t10.5 -0.5t11 -0.5h11q5 0 10.5 0.5t9.5 1t7.5 1.5t5.5 3q-10 1 -22 5t-19.5 8.5t-18.5 10.5q-87 55 -86 157q4 -2 8.5 -4t10.5 -5q8 -3 16.5 -5.5t21.5 -4.5q20 -4 25 -3h-1q-3 4 -7.5 8t-9 7t-9 7t-7.5 8q-64 79 -41 166q0 3 1 6l2 6q1 3 2 5.5t2 5.5
t2.5 5.5t2.5 4.5l2 6q1 2 2.5 4.5t2.5 4.5h1q2 -5 9 -11.5t8 -7.5q11 -14 24.5 -27t29.5 -26q53 -41 103.5 -66t121.5 -42q13 -3 25.5 -5.5t27.5 -4t29 -1.5q-6 20 -5 43.5t6 42.5q8 30 22.5 53.5t35 41t46.5 29.5q17 7 41 12h7l8 2q4 0 7 1z" />
    <glyph glyph-name="uniE69F" unicode="&#xe69f;" 
d="M352 238h193q0 20 -5.5 38t-10.5 26l-6 7h-167q4 91 9 227h159q-1 68 -19 68h-280q1 2 1.5 5t2.5 13t4.5 19.5t6 22.5t7.5 24.5t8.5 23t9.5 19.5h-5q-3 0 -12.5 -2t-18 -5.5t-20.5 -11t-22 -18.5t-19.5 -29t-14.5 -41q-10 -39 -23.5 -75.5t-24 -57.5t-19 -38.5
t-9.5 -19.5q-3 -8 11 -7t26 7q1 0 3 1q66 30 81 102h87q4 -198 3 -227h-178q-7 -5 -13 -14t-10 -18.5t-6.5 -18.5t-3.5 -15l-1 -5h204q-18 -119 -44 -168q-4 -7 -15.5 -29t-17.5 -32t-20 -31t-28 -36.5t-37 -38t-52 -45.5l-3 -6q2 -7 44 -3q53 4 91 24.5t65 74.5
q11 21 21 44.5t20 50t18 52.5v-1l168 -193q1 2 2 6l4 16q3 12 4.5 24t0.5 29.5t-6 33.5l-124 139l-42 -31q19 67 23 117v3zM585 618v-669h70l29 -80l122 80h154v669h-375zM887 21h-80l-99 -66l-24 66h-25v522h228v-522z" />
    <glyph glyph-name="uniE6A0" unicode="&#xe6a0;" 
d="M954 54l-4 6l-9 11q-1 2 -3.5 4.5t-12.5 12t-23 19.5q-41 34 -74 56l-46 29l-20 10q-15 8 -34 1q-7 -2 -12.5 -7t-8.5 -10l-18 -26q-3 -5 -5 -10q-3 -5 -7.5 -13.5t-9.5 -18t-9 -17.5q-7 -13 -20 -22.5t-29.5 -12.5t-34.5 7q-96 54 -161 116q-26 24 -46 46t-35.5 42
t-26.5 38t-19 36q-8 12 -1.5 35t25.5 32q12 6 32 14t30 14q6 4 10 6t8.5 4.5t12.5 8.5l3 3q4 2 4 3q2 1 3 2q18 17 9 41l-3 7q-13 31 -34 65q-16 28 -39 58q-9 13 -19 23.5t-17.5 16.5t-13.5 10.5t-9 5.5l-3 2q-1 0 -2.5 1t-5 2.5t-5.5 2.5q-6 3 -12 4t-12 0.5t-11.5 -2
t-10.5 -3.5q-31 -12 -75 -48q-42 -35 -65.5 -77.5t-18.5 -81.5q10 -67 83.5 -186.5t171 -212.5t223.5 -162.5t196 -78.5q75 -9 160 69q36 33 52 68q6 13 7.5 28t-5.5 29z" />
    <glyph glyph-name="uniE6A1" unicode="&#xe6a1;" 
d="M512 736q-46 0 -90.5 -9t-84 -26t-76 -41.5t-66.5 -54.5t-54.5 -66.5t-41.5 -76t-26 -84t-9 -90.5q0 -91 35.5 -174t95.5 -143t143 -95t174 -35t174 35t143 95t95.5 143t35.5 174q0 73 -23 141.5t-64.5 123.5t-96.5 96.5t-123 64t-141 22.5zM765 122q-5 -10 -13.5 -20.5
t-16.5 -18.5q-24 -22 -46 -32.5t-46 -7.5q-41 5 -113 45.5t-128.5 94t-99 122t-47.5 107.5q-3 22 10.5 46.5t37.5 44.5q26 21 43 28q14 6 27 0q1 0 2.5 -1t3.5 -2h1q2 -1 5.5 -3t13 -10.5t17.5 -19.5q13 -18 23 -34l19 -37l2 -5q5 -13 -6 -23l-1 -1l-3 -2l-1 -2
q-6 -4 -10.5 -6t-7.5 -5l-8 -4q-4 -2 -7.5 -3t-9.5 -3.5t-11 -5.5q-11 -5 -14.5 -18t0.5 -20q10 -21 27.5 -43.5t45.5 -49.5q38 -36 93 -67q6 -4 12 -4.5t11.5 1t10.5 4.5t8.5 7t6 8t5.5 9.5t5.5 10.5t3.5 8l14 21q1 3 4.5 5.5t7.5 4.5q11 3 19 -1l12 -6l26 -17
q20 -12 43 -32l22 -20l6 -7l2 -3q3 -4 3.5 -10.5t-1 -12.5t-3.5 -10z" />
    </font>
</defs>
</svg>
